M48
; DRILL file KiCad 10.0.4 date 2026-08-05T10:44:56
; FORMAT={-:-/ absolute / metric / decimal}
; #@! TF.CreationDate,2026-08-05T10:44:56+02:00
; #@! TF.GenerationSoftware,Kicad,Pcbnew,10.0.4
; #@! TF.FileFunction,Plated,1,2,PTH
FMAT,2
METRIC
; #@! TA.AperFunction,Plated,PTH,ViaDrill
T1C0.300
; #@! TA.AperFunction,Plated,PTH,ComponentDrill
T2C0.750
; #@! TA.AperFunction,Plated,PTH,ComponentDrill
T3C0.800
; #@! TA.AperFunction,Plated,PTH,ComponentDrill
T4C0.840
; #@! TA.AperFunction,Plated,PTH,ComponentDrill
T5C1.000
; #@! TA.AperFunction,Plated,PTH,ComponentDrill
T6C1.200
%
G90
G05
T1
X53.0Y-146.5
X99.5Y-138.5
X114.0Y-126.0
X114.0Y-127.0
X114.0Y-128.0
X121.0Y-126.5
X122.0Y-127.5
X123.5Y-126.5
X126.5Y-129.5
X129.0Y-135.0
X135.35Y-136.461
X136.0Y-135.65
X137.5Y-124.0
T2
X65.5Y-140.95
X67.5Y-140.95
X69.5Y-140.95
X71.5Y-140.95
X73.5Y-140.95
X75.5Y-140.95
T3
X97.19Y-116.5
X97.19Y-122.0
X104.81Y-116.5
X104.81Y-122.0
T4
X121.96Y-122.63
X121.96Y-137.87
X124.5Y-122.63
X124.5Y-137.87
X127.04Y-122.63
X127.04Y-137.87
X129.58Y-122.63
X129.58Y-137.87
X132.12Y-122.63
X132.12Y-137.87
X134.66Y-122.63
X134.66Y-137.87
X137.2Y-122.63
X137.2Y-137.87
X139.74Y-122.63
X139.74Y-137.87
T5
X53.0Y-116.5
X53.0Y-119.04
X53.0Y-121.58
X53.0Y-124.12
X53.0Y-126.66
X53.0Y-129.2
X53.0Y-131.74
X53.0Y-134.28
X53.0Y-136.82
X53.0Y-139.36
X53.0Y-141.9
X53.0Y-144.44
T6
X96.0Y-140.5
X99.5Y-140.5
M30
