%TF.GenerationSoftware,KiCad,Pcbnew,10.0.4*%
%TF.CreationDate,2026-08-05T10:44:43+02:00*%
%TF.ProjectId,PocketOBI,506f636b-6574-44f4-9249-2e6b69636164,rev?*%
%TF.SameCoordinates,Original*%
%TF.FileFunction,Copper,L1,Top*%
%TF.FilePolarity,Positive*%
%FSLAX46Y46*%
G04 Gerber Fmt 4.6, Leading zero omitted, Abs format (unit mm)*
G04 Created by KiCad (PCBNEW 10.0.4) date 2026-08-05 10:44:43*
%MOMM*%
%LPD*%
G01*
G04 APERTURE LIST*
G04 Aperture macros list*
%AMRoundRect*
0 Rectangle with rounded corners*
0 $1 Rounding radius*
0 $2 $3 $4 $5 $6 $7 $8 $9 X,Y pos of 4 corners*
0 Add a 4 corners polygon primitive as box body*
4,1,4,$2,$3,$4,$5,$6,$7,$8,$9,$2,$3,0*
0 Add four circle primitives for the rounded corners*
1,1,$1+$1,$2,$3*
1,1,$1+$1,$4,$5*
1,1,$1+$1,$6,$7*
1,1,$1+$1,$8,$9*
0 Add four rect primitives between the rounded corners*
20,1,$1+$1,$2,$3,$4,$5,0*
20,1,$1+$1,$4,$5,$6,$7,0*
20,1,$1+$1,$6,$7,$8,$9,0*
20,1,$1+$1,$8,$9,$2,$3,0*%
G04 Aperture macros list end*
%TA.AperFunction,ComponentPad*%
%ADD10RoundRect,0.250000X0.350000X0.625000X-0.350000X0.625000X-0.350000X-0.625000X0.350000X-0.625000X0*%
%TD*%
%TA.AperFunction,ComponentPad*%
%ADD11O,1.200000X1.750000*%
%TD*%
%TA.AperFunction,ComponentPad*%
%ADD12C,2.400000*%
%TD*%
%TA.AperFunction,ComponentPad*%
%ADD13RoundRect,0.250001X0.949999X0.949999X-0.949999X0.949999X-0.949999X-0.949999X0.949999X-0.949999X0*%
%TD*%
%TA.AperFunction,ComponentPad*%
%ADD14C,1.700000*%
%TD*%
%TA.AperFunction,ComponentPad*%
%ADD15R,1.700000X1.700000*%
%TD*%
%TA.AperFunction,ComponentPad*%
%ADD16C,1.600000*%
%TD*%
%TA.AperFunction,ComponentPad*%
%ADD17C,1.140000*%
%TD*%
%TA.AperFunction,ViaPad*%
%ADD18C,0.600000*%
%TD*%
%TA.AperFunction,Conductor*%
%ADD19C,0.300000*%
%TD*%
G04 APERTURE END LIST*
D10*
%TO.P,Battery_Interface1,1,NC_1*%
%TO.N,/ENABLE*%
X75500000Y-140950000D03*
D11*
%TO.P,Battery_Interface1,2,ENABLE_2*%
%TO.N,unconnected-(Battery_Interface1-ENABLE-Pad2)*%
X73500000Y-140950000D03*
%TO.P,Battery_Interface1,3,NC_3*%
%TO.N,unconnected-(Battery_Interface1-NC-Pad3)*%
X71500000Y-140950000D03*
%TO.P,Battery_Interface1,4,NC_4*%
%TO.N,unconnected-(Battery_Interface1-NC-Pad4)*%
X69500000Y-140950000D03*
%TO.P,Battery_Interface1,5,NC_5*%
%TO.N,/DATA*%
X67500000Y-140950000D03*
%TO.P,Battery_Interface1,6,DATA_6*%
%TO.N,unconnected-(Battery_Interface1-DATA-Pad6)*%
X65500000Y-140950000D03*
%TD*%
D12*
%TO.P,Battery_GND1,2,Pin_2_2*%
%TO.N,/GND*%
X96000000Y-140500000D03*
D13*
%TO.P,Battery_GND1,1,Pin_1_1*%
X99500000Y-140500000D03*
%TD*%
D14*
%TO.P,TFT_SCREEN,12,KO_12*%
%TO.N,/BACK_KO*%
X53000000Y-116500000D03*
%TO.P,TFT_SCREEN,11,PUSH_11*%
%TO.N,/ENC_PUSH*%
X53000000Y-119040000D03*
%TO.P,TFT_SCREEN,10,B_10*%
%TO.N,/ENC_B*%
X53000000Y-121580000D03*
%TO.P,TFT_SCREEN,9,A_9*%
%TO.N,/ENC_A*%
X53000000Y-124120000D03*
%TO.P,TFT_SCREEN,8,BLK_8*%
%TO.N,/3V3*%
X53000000Y-126660000D03*
%TO.P,TFT_SCREEN,7,CS_7*%
%TO.N,/TFT_CS*%
X53000000Y-129200000D03*
%TO.P,TFT_SCREEN,6,DC_6*%
%TO.N,/TFT_DC*%
X53000000Y-131740000D03*
%TO.P,TFT_SCREEN,5,RES_5*%
%TO.N,/TFT_RES*%
X53000000Y-134280000D03*
%TO.P,TFT_SCREEN,4,SDA_4*%
%TO.N,/SPI_MOSI*%
X53000000Y-136820000D03*
%TO.P,TFT_SCREEN,3,SCL_3*%
%TO.N,/SPI_SCLK*%
X53000000Y-139360000D03*
%TO.P,TFT_SCREEN,2,VCC_2*%
%TO.N,/3V3*%
X53000000Y-141900000D03*
D15*
%TO.P,TFT_SCREEN,1,GND_1*%
%TO.N,/GND*%
X53000000Y-144440000D03*
%TD*%
D16*
%TO.P,R1 - 470 \u03A9,1*%
%TO.N,/3V3*%
X97190000Y-122000000D03*
%TO.P,R1 - 470 \u03A9,2*%
%TO.N,/DATA*%
X104810000Y-122000000D03*
%TD*%
%TO.P,R2,2*%
%TO.N,/ENABLE*%
X104810000Y-116500000D03*
%TO.P,R2,1*%
%TO.N,/3V3*%
X97190000Y-116500000D03*
%TD*%
D17*
%TO.P,U1,0,GPIO0_0*%
%TO.N,/SPI_SCLK*%
X121960000Y-122630000D03*
%TO.P,U1,1,GPIO1_1*%
%TO.N,/SPI_MOSI*%
X124500000Y-122630000D03*
%TO.P,U1,2,GPIO2_2*%
%TO.N,/BACK_KO*%
X127040000Y-122630000D03*
%TO.P,U1,3,GPIO3_3*%
%TO.N,/DATA*%
X129580000Y-122630000D03*
%TO.P,U1,3V3,3V3_3V3*%
%TO.N,/3V3*%
X134660000Y-122630000D03*
%TO.P,U1,4,GPIO4_4*%
%TO.N,/ENABLE*%
X132120000Y-122630000D03*
%TO.P,U1,5,GPIO5_5*%
%TO.N,/ENC_A*%
X139740000Y-137870000D03*
%TO.P,U1,5V,5V_5V*%
%TO.N,unconnected-(U1-Pad5V)*%
X139740000Y-122630000D03*
%TO.P,U1,6,GPIO6_6*%
%TO.N,/ENC_B*%
X137200000Y-137870000D03*
%TO.P,U1,7,GPIO7_7*%
%TO.N,/ENC_PUSH*%
X134660000Y-137870000D03*
%TO.P,U1,8,GPIO8_8*%
%TO.N,unconnected-(U1-GPIO8-Pad8)*%
X132120000Y-137870000D03*
%TO.P,U1,9,GPIO9_9*%
%TO.N,unconnected-(U1-GPIO9-Pad9)*%
X129580000Y-137870000D03*
%TO.P,U1,10,GPIO10_10*%
%TO.N,/TFT_RES*%
X127040000Y-137870000D03*
%TO.P,U1,20,GPIO20_20*%
%TO.N,/TFT_DC*%
X124500000Y-137870000D03*
%TO.P,U1,21,GPIO21_21*%
%TO.N,/TFT_CS*%
X121960000Y-137870000D03*
%TO.P,U1,GND,GND_GND*%
%TO.N,/GND*%
X137200000Y-122630000D03*
%TD*%
D18*
%TO.N,/GND*%
X99500000Y-138500000D03*
X53000000Y-146500000D03*
X137500000Y-124000000D03*
%TO.N,/ENC_PUSH*%
X135350000Y-136460763D03*
X114000000Y-126000000D03*
%TO.N,/ENC_B*%
X136000000Y-135650000D03*
X114000000Y-127000000D03*
%TO.N,/ENC_A*%
X129000000Y-135000000D03*
X114000000Y-128000000D03*
%TO.N,/SPI_MOSI*%
X121000000Y-126500000D03*
X123500000Y-126500000D03*
%TO.N,/SPI_SCLK*%
X122000000Y-127500000D03*
X126500000Y-129500000D03*
%TD*%
%TO.N,/GND*%
D19*
X53000000Y-144440000D02*
X53000000Y-146500000D01*
%TO.N,/3V3*%
X56000000Y-114000000D02*
X56000000Y-113650000D01*
X56000000Y-113650000D02*
X55500000Y-113650000D01*
X56000000Y-114000000D02*
X51000000Y-114000000D01*
%TO.N,/SPI_SCLK*%
X56860000Y-139360000D02*
X53000000Y-139360000D01*
X64000000Y-146500000D02*
X56860000Y-139360000D01*
X127960000Y-130960000D02*
X126500000Y-129500000D01*
X121707106Y-146500000D02*
X127960000Y-140247107D01*
X64000000Y-146500000D02*
X121707106Y-146500000D01*
X127960000Y-140247107D02*
X127960000Y-130960000D01*
%TO.N,/ENC_PUSH*%
X59960000Y-126000000D02*
X53000000Y-119040000D01*
X114000000Y-126000000D02*
X59960000Y-126000000D01*
%TO.N,/TFT_CS*%
X109002894Y-142500000D02*
X79587562Y-142500000D01*
X76312562Y-139225000D02*
X67606497Y-139225000D01*
X79587562Y-142500000D02*
X76312562Y-139225000D01*
X66550000Y-141618503D02*
X68931497Y-144000000D01*
X67606497Y-139225000D02*
X66550000Y-140281497D01*
X66550000Y-140281497D02*
X66550000Y-141618503D01*
X68931497Y-144000000D02*
X115830000Y-144000000D01*
%TO.N,/GND*%
X99500000Y-140500000D02*
X99500000Y-138500000D01*
X96000000Y-140500000D02*
X99500000Y-140500000D01*
%TO.N,/TFT_DC*%
X66260000Y-145000000D02*
X120500000Y-145000000D01*
X53000000Y-131740000D02*
X66260000Y-145000000D01*
%TO.N,/ENABLE*%
X78050000Y-143500000D02*
X114500000Y-143500000D01*
X75500000Y-140950000D02*
X78050000Y-143500000D01*
%TO.N,/TFT_RES*%
X53000000Y-134280000D02*
X64720000Y-146000000D01*
X64720000Y-146000000D02*
X121500000Y-146000000D01*
%TO.N,/DATA*%
X79380456Y-143000000D02*
X76105456Y-139725000D01*
X76105456Y-139725000D02*
X68725000Y-139725000D01*
X68725000Y-139725000D02*
X67500000Y-140950000D01*
X109210000Y-143000000D02*
X79380456Y-143000000D01*
%TO.N,/3V3*%
X51000000Y-128660000D02*
X51000000Y-139900000D01*
%TO.N,/GND*%
X137200000Y-123700000D02*
X137500000Y-124000000D01*
X137200000Y-122630000D02*
X137200000Y-123700000D01*
%TO.N,/3V3*%
X51000000Y-139900000D02*
X53000000Y-141900000D01*
X53000000Y-126660000D02*
X51000000Y-128660000D01*
%TO.N,/ENC_PUSH*%
X134660000Y-137150763D02*
X135350000Y-136460763D01*
X134660000Y-137870000D02*
X134660000Y-137150763D01*
%TO.N,/ENC_B*%
X136000000Y-136670000D02*
X137200000Y-137870000D01*
X136000000Y-135650000D02*
X136000000Y-136670000D01*
X58420000Y-127000000D02*
X114000000Y-127000000D01*
X53000000Y-121580000D02*
X58420000Y-127000000D01*
%TO.N,/ENC_A*%
X129000000Y-135000000D02*
X136870000Y-135000000D01*
X136870000Y-135000000D02*
X139740000Y-137870000D01*
X56880000Y-128000000D02*
X114000000Y-128000000D01*
X53000000Y-124120000D02*
X56880000Y-128000000D01*
%TO.N,/TFT_CS*%
X115830000Y-144000000D02*
X121960000Y-137870000D01*
X122650000Y-128852894D02*
X109002894Y-142500000D01*
X122650000Y-123241077D02*
X122650000Y-128852894D01*
X122880000Y-123011077D02*
X122650000Y-123241077D01*
X122880000Y-122248923D02*
X122880000Y-123011077D01*
X121578923Y-121710000D02*
X122341077Y-121710000D01*
X122341077Y-121710000D02*
X122880000Y-122248923D01*
X114088923Y-129200000D02*
X121578923Y-121710000D01*
X53000000Y-129200000D02*
X114088923Y-129200000D01*
%TO.N,/SPI_MOSI*%
X51800000Y-135620000D02*
X53000000Y-136820000D01*
X51800000Y-131242943D02*
X51800000Y-135620000D01*
X52502943Y-130540000D02*
X51800000Y-131242943D01*
X116960000Y-130540000D02*
X52502943Y-130540000D01*
X121000000Y-126500000D02*
X116960000Y-130540000D01*
X124500000Y-125500000D02*
X123500000Y-126500000D01*
X124500000Y-122630000D02*
X124500000Y-125500000D01*
%TO.N,/SPI_SCLK*%
X121960000Y-126460000D02*
X121960000Y-122630000D01*
X122000000Y-126500000D02*
X121960000Y-126460000D01*
X122000000Y-127500000D02*
X122000000Y-126500000D01*
%TO.N,/DATA*%
X129580000Y-122630000D02*
X109210000Y-143000000D01*
%TO.N,/ENABLE*%
X114500000Y-140250000D02*
X132120000Y-122630000D01*
X114500000Y-143500000D02*
X114500000Y-140250000D01*
%TO.N,/TFT_DC*%
X120500000Y-141870000D02*
X124500000Y-137870000D01*
X120500000Y-145000000D02*
X120500000Y-141870000D01*
%TO.N,/TFT_RES*%
X127040000Y-140460000D02*
X127040000Y-137870000D01*
X121500000Y-146000000D02*
X127040000Y-140460000D01*
%TO.N,/3V3*%
X51000000Y-114000000D02*
X51000000Y-124660000D01*
X94690000Y-114000000D02*
X56000000Y-114000000D01*
X97190000Y-116500000D02*
X94690000Y-114000000D01*
X51000000Y-124660000D02*
X53000000Y-126660000D01*
%TO.N,/BACK_KO*%
X104436346Y-124000000D02*
X60500000Y-124000000D01*
X107226346Y-121210000D02*
X104436346Y-124000000D01*
X60500000Y-124000000D02*
X53000000Y-116500000D01*
X125620000Y-121210000D02*
X107226346Y-121210000D01*
X127040000Y-122630000D02*
X125620000Y-121210000D01*
%TO.N,/3V3*%
X127380000Y-115350000D02*
X98340000Y-115350000D01*
X98340000Y-115350000D02*
X97190000Y-116500000D01*
X134660000Y-122630000D02*
X127380000Y-115350000D01*
X97190000Y-116500000D02*
X97190000Y-122000000D01*
%TO.N,/DATA*%
X125450000Y-118500000D02*
X129580000Y-122630000D01*
X105000000Y-122000000D02*
X108500000Y-118500000D01*
X104810000Y-122000000D02*
X105000000Y-122000000D01*
X108500000Y-118500000D02*
X125450000Y-118500000D01*
%TO.N,/ENABLE*%
X125990000Y-116500000D02*
X132120000Y-122630000D01*
X104810000Y-116500000D02*
X125990000Y-116500000D01*
%TD*%
M02*
