%TF.GenerationSoftware,KiCad,Pcbnew,10.0.4*%
%TF.CreationDate,2026-08-05T10:44:43+02:00*%
%TF.ProjectId,PocketOBI,506f636b-6574-44f4-9249-2e6b69636164,rev?*%
%TF.SameCoordinates,Original*%
%TF.FileFunction,Copper,L2,Bot*%
%TF.FilePolarity,Positive*%
%FSLAX46Y46*%
G04 Gerber Fmt 4.6, Leading zero omitted, Abs format (unit mm)*
G04 Created by KiCad (PCBNEW 10.0.4) date 2026-08-05 10:44:43*
%MOMM*%
%LPD*%
G01*
G04 APERTURE LIST*
G04 Aperture macros list*
%AMRoundRect*
0 Rectangle with rounded corners*
0 $1 Rounding radius*
0 $2 $3 $4 $5 $6 $7 $8 $9 X,Y pos of 4 corners*
0 Add a 4 corners polygon primitive as box body*
4,1,4,$2,$3,$4,$5,$6,$7,$8,$9,$2,$3,0*
0 Add four circle primitives for the rounded corners*
1,1,$1+$1,$2,$3*
1,1,$1+$1,$4,$5*
1,1,$1+$1,$6,$7*
1,1,$1+$1,$8,$9*
0 Add four rect primitives between the rounded corners*
20,1,$1+$1,$2,$3,$4,$5,0*
20,1,$1+$1,$4,$5,$6,$7,0*
20,1,$1+$1,$6,$7,$8,$9,0*
20,1,$1+$1,$8,$9,$2,$3,0*%
G04 Aperture macros list end*
%TA.AperFunction,ComponentPad*%
%ADD10RoundRect,0.250000X0.350000X0.625000X-0.350000X0.625000X-0.350000X-0.625000X0.350000X-0.625000X0*%
%TD*%
%TA.AperFunction,ComponentPad*%
%ADD11O,1.200000X1.750000*%
%TD*%
%TA.AperFunction,ComponentPad*%
%ADD12C,2.400000*%
%TD*%
%TA.AperFunction,ComponentPad*%
%ADD13RoundRect,0.250001X0.949999X0.949999X-0.949999X0.949999X-0.949999X-0.949999X0.949999X-0.949999X0*%
%TD*%
%TA.AperFunction,ComponentPad*%
%ADD14C,1.700000*%
%TD*%
%TA.AperFunction,ComponentPad*%
%ADD15R,1.700000X1.700000*%
%TD*%
%TA.AperFunction,ComponentPad*%
%ADD16C,1.600000*%
%TD*%
%TA.AperFunction,ComponentPad*%
%ADD17C,1.140000*%
%TD*%
%TA.AperFunction,ViaPad*%
%ADD18C,0.600000*%
%TD*%
%TA.AperFunction,Conductor*%
%ADD19C,0.300000*%
%TD*%
G04 APERTURE END LIST*
D10*
%TO.P,Battery_Interface1,1,NC_1*%
%TO.N,/ENABLE*%
X75500000Y-140950000D03*
D11*
%TO.P,Battery_Interface1,2,ENABLE_2*%
%TO.N,unconnected-(Battery_Interface1-ENABLE-Pad2)*%
X73500000Y-140950000D03*
%TO.P,Battery_Interface1,3,NC_3*%
%TO.N,unconnected-(Battery_Interface1-NC-Pad3)*%
X71500000Y-140950000D03*
%TO.P,Battery_Interface1,4,NC_4*%
%TO.N,unconnected-(Battery_Interface1-NC-Pad4)*%
X69500000Y-140950000D03*
%TO.P,Battery_Interface1,5,NC_5*%
%TO.N,/DATA*%
X67500000Y-140950000D03*
%TO.P,Battery_Interface1,6,DATA_6*%
%TO.N,unconnected-(Battery_Interface1-DATA-Pad6)*%
X65500000Y-140950000D03*
%TD*%
D12*
%TO.P,Battery_GND1,2,Pin_2_2*%
%TO.N,/GND*%
X96000000Y-140500000D03*
D13*
%TO.P,Battery_GND1,1,Pin_1_1*%
X99500000Y-140500000D03*
%TD*%
D14*
%TO.P,TFT_SCREEN,12,KO_12*%
%TO.N,/BACK_KO*%
X53000000Y-116500000D03*
%TO.P,TFT_SCREEN,11,PUSH_11*%
%TO.N,/ENC_PUSH*%
X53000000Y-119040000D03*
%TO.P,TFT_SCREEN,10,B_10*%
%TO.N,/ENC_B*%
X53000000Y-121580000D03*
%TO.P,TFT_SCREEN,9,A_9*%
%TO.N,/ENC_A*%
X53000000Y-124120000D03*
%TO.P,TFT_SCREEN,8,BLK_8*%
%TO.N,/3V3*%
X53000000Y-126660000D03*
%TO.P,TFT_SCREEN,7,CS_7*%
%TO.N,/TFT_CS*%
X53000000Y-129200000D03*
%TO.P,TFT_SCREEN,6,DC_6*%
%TO.N,/TFT_DC*%
X53000000Y-131740000D03*
%TO.P,TFT_SCREEN,5,RES_5*%
%TO.N,/TFT_RES*%
X53000000Y-134280000D03*
%TO.P,TFT_SCREEN,4,SDA_4*%
%TO.N,/SPI_MOSI*%
X53000000Y-136820000D03*
%TO.P,TFT_SCREEN,3,SCL_3*%
%TO.N,/SPI_SCLK*%
X53000000Y-139360000D03*
%TO.P,TFT_SCREEN,2,VCC_2*%
%TO.N,/3V3*%
X53000000Y-141900000D03*
D15*
%TO.P,TFT_SCREEN,1,GND_1*%
%TO.N,/GND*%
X53000000Y-144440000D03*
%TD*%
D16*
%TO.P,R1 - 470 \u03A9,1*%
%TO.N,/3V3*%
X97190000Y-122000000D03*
%TO.P,R1 - 470 \u03A9,2*%
%TO.N,/DATA*%
X104810000Y-122000000D03*
%TD*%
%TO.P,R2,2*%
%TO.N,/ENABLE*%
X104810000Y-116500000D03*
%TO.P,R2,1*%
%TO.N,/3V3*%
X97190000Y-116500000D03*
%TD*%
D17*
%TO.P,U1,0,GPIO0_0*%
%TO.N,/SPI_SCLK*%
X121960000Y-122630000D03*
%TO.P,U1,1,GPIO1_1*%
%TO.N,/SPI_MOSI*%
X124500000Y-122630000D03*
%TO.P,U1,2,GPIO2_2*%
%TO.N,/BACK_KO*%
X127040000Y-122630000D03*
%TO.P,U1,3,GPIO3_3*%
%TO.N,/DATA*%
X129580000Y-122630000D03*
%TO.P,U1,3V3,3V3_3V3*%
%TO.N,/3V3*%
X134660000Y-122630000D03*
%TO.P,U1,4,GPIO4_4*%
%TO.N,/ENABLE*%
X132120000Y-122630000D03*
%TO.P,U1,5,GPIO5_5*%
%TO.N,/ENC_A*%
X139740000Y-137870000D03*
%TO.P,U1,5V,5V_5V*%
%TO.N,unconnected-(U1-Pad5V)*%
X139740000Y-122630000D03*
%TO.P,U1,6,GPIO6_6*%
%TO.N,/ENC_B*%
X137200000Y-137870000D03*
%TO.P,U1,7,GPIO7_7*%
%TO.N,/ENC_PUSH*%
X134660000Y-137870000D03*
%TO.P,U1,8,GPIO8_8*%
%TO.N,unconnected-(U1-GPIO8-Pad8)*%
X132120000Y-137870000D03*
%TO.P,U1,9,GPIO9_9*%
%TO.N,unconnected-(U1-GPIO9-Pad9)*%
X129580000Y-137870000D03*
%TO.P,U1,10,GPIO10_10*%
%TO.N,/TFT_RES*%
X127040000Y-137870000D03*
%TO.P,U1,20,GPIO20_20*%
%TO.N,/TFT_DC*%
X124500000Y-137870000D03*
%TO.P,U1,21,GPIO21_21*%
%TO.N,/TFT_CS*%
X121960000Y-137870000D03*
%TO.P,U1,GND,GND_GND*%
%TO.N,/GND*%
X137200000Y-122630000D03*
%TD*%
D18*
%TO.N,/GND*%
X99500000Y-138500000D03*
X53000000Y-146500000D03*
X137500000Y-124000000D03*
%TO.N,/ENC_PUSH*%
X135350000Y-136460763D03*
X114000000Y-126000000D03*
%TO.N,/ENC_B*%
X136000000Y-135650000D03*
X114000000Y-127000000D03*
%TO.N,/ENC_A*%
X129000000Y-135000000D03*
X114000000Y-128000000D03*
%TO.N,/SPI_MOSI*%
X121000000Y-126500000D03*
X123500000Y-126500000D03*
%TO.N,/SPI_SCLK*%
X122000000Y-127500000D03*
X126500000Y-129500000D03*
%TD*%
%TO.N,/ENC_PUSH*%
D19*
X135460763Y-136460763D02*
X135350000Y-136460763D01*
X135500000Y-136500000D02*
X135460763Y-136460763D01*
X136500000Y-136500000D02*
X135500000Y-136500000D01*
X136650000Y-136350000D02*
X136500000Y-136500000D01*
X136650000Y-135380761D02*
X136650000Y-136350000D01*
X135119239Y-133850000D02*
X136650000Y-135380761D01*
X122350000Y-133850000D02*
X135119239Y-133850000D01*
X114500000Y-126000000D02*
X122350000Y-133850000D01*
X114000000Y-126000000D02*
X114500000Y-126000000D01*
%TO.N,/ENC_B*%
X121350000Y-134350000D02*
X134700000Y-134350000D01*
X134700000Y-134350000D02*
X136000000Y-135650000D01*
X114000000Y-127000000D02*
X121350000Y-134350000D01*
%TO.N,/ENC_A*%
X114000000Y-128000000D02*
X121000000Y-135000000D01*
X121000000Y-135000000D02*
X129000000Y-135000000D01*
%TO.N,/SPI_MOSI*%
X123500000Y-126500000D02*
X121000000Y-126500000D01*
%TO.N,/SPI_SCLK*%
X126500000Y-129500000D02*
X124500000Y-127500000D01*
X124500000Y-127500000D02*
X122000000Y-127500000D01*
%TD*%
%TA.AperFunction,Conductor*%
%TO.N,/GND*%
G36*
X140442539Y-113520185D02*
G01*
X140488294Y-113572989D01*
X140499500Y-113624500D01*
X140499500Y-121618013D01*
X140479815Y-121685052D01*
X140427011Y-121730807D01*
X140357853Y-121740751D01*
X140306610Y-121721116D01*
X140247076Y-121681337D01*
X140247069Y-121681333D01*
X140052253Y-121600638D01*
X140052245Y-121600636D01*
X139845439Y-121559500D01*
X139845435Y-121559500D01*
X139634565Y-121559500D01*
X139634560Y-121559500D01*
X139427754Y-121600636D01*
X139427746Y-121600638D01*
X139232930Y-121681333D01*
X139232921Y-121681338D01*
X139057596Y-121798487D01*
X139057592Y-121798490D01*
X138908490Y-121947592D01*
X138908487Y-121947596D01*
X138791338Y-122122921D01*
X138791333Y-122122930D01*
X138710638Y-122317746D01*
X138710636Y-122317754D01*
X138669500Y-122524560D01*
X138669500Y-122735439D01*
X138710636Y-122942245D01*
X138710638Y-122942253D01*
X138791333Y-123137069D01*
X138791338Y-123137078D01*
X138908487Y-123312403D01*
X138908490Y-123312407D01*
X139057592Y-123461509D01*
X139057596Y-123461512D01*
X139232921Y-123578661D01*
X139232927Y-123578664D01*
X139232928Y-123578665D01*
X139427747Y-123659362D01*
X139632051Y-123700000D01*
X139634560Y-123700499D01*
X139634564Y-123700500D01*
X139634565Y-123700500D01*
X139845436Y-123700500D01*
X139845437Y-123700499D01*
X140052253Y-123659362D01*
X140247072Y-123578665D01*
X140247738Y-123578220D01*
X140306609Y-123538884D01*
X140373286Y-123518006D01*
X140440666Y-123536490D01*
X140487357Y-123588469D01*
X140499500Y-123641986D01*
X140499500Y-136858013D01*
X140479815Y-136925052D01*
X140427011Y-136970807D01*
X140357853Y-136980751D01*
X140306610Y-136961116D01*
X140247076Y-136921337D01*
X140247069Y-136921333D01*
X140052253Y-136840638D01*
X140052245Y-136840636D01*
X139845439Y-136799500D01*
X139845435Y-136799500D01*
X139634565Y-136799500D01*
X139634560Y-136799500D01*
X139427754Y-136840636D01*
X139427746Y-136840638D01*
X139232930Y-136921333D01*
X139232921Y-136921338D01*
X139057596Y-137038487D01*
X139057592Y-137038490D01*
X138908490Y-137187592D01*
X138908487Y-137187596D01*
X138791338Y-137362921D01*
X138791333Y-137362930D01*
X138710638Y-137557746D01*
X138710636Y-137557754D01*
X138669500Y-137764560D01*
X138669500Y-137975439D01*
X138710636Y-138182245D01*
X138710638Y-138182253D01*
X138791333Y-138377069D01*
X138791338Y-138377078D01*
X138908487Y-138552403D01*
X138908490Y-138552407D01*
X139057592Y-138701509D01*
X139057596Y-138701512D01*
X139232921Y-138818661D01*
X139232927Y-138818664D01*
X139232928Y-138818665D01*
X139427747Y-138899362D01*
X139634560Y-138940499D01*
X139634564Y-138940500D01*
X139634565Y-138940500D01*
X139845436Y-138940500D01*
X139845437Y-138940499D01*
X140052253Y-138899362D01*
X140247072Y-138818665D01*
X140306609Y-138778884D01*
X140373286Y-138758006D01*
X140440666Y-138776490D01*
X140487357Y-138828469D01*
X140499500Y-138881986D01*
X140499500Y-146875500D01*
X140479815Y-146942539D01*
X140427011Y-146988294D01*
X140375500Y-146999500D01*
X50624500Y-146999500D01*
X50557461Y-146979815D01*
X50511706Y-146927011D01*
X50500500Y-146875500D01*
X50500500Y-116393713D01*
X51649500Y-116393713D01*
X51649500Y-116606287D01*
X51682754Y-116816243D01*
X51735970Y-116980025D01*
X51748444Y-117018414D01*
X51844951Y-117207820D01*
X51969890Y-117379786D01*
X52120213Y-117530109D01*
X52292182Y-117655050D01*
X52300946Y-117659516D01*
X52351742Y-117707491D01*
X52368536Y-117775312D01*
X52345998Y-117841447D01*
X52300946Y-117880484D01*
X52292182Y-117884949D01*
X52120213Y-118009890D01*
X51969890Y-118160213D01*
X51844951Y-118332179D01*
X51748444Y-118521585D01*
X51682753Y-118723760D01*
X51649500Y-118933713D01*
X51649500Y-119146286D01*
X51682753Y-119356239D01*
X51748444Y-119558414D01*
X51844951Y-119747820D01*
X51969890Y-119919786D01*
X52120213Y-120070109D01*
X52292182Y-120195050D01*
X52300946Y-120199516D01*
X52351742Y-120247491D01*
X52368536Y-120315312D01*
X52345998Y-120381447D01*
X52300946Y-120420484D01*
X52292182Y-120424949D01*
X52120213Y-120549890D01*
X51969890Y-120700213D01*
X51844951Y-120872179D01*
X51748444Y-121061585D01*
X51682753Y-121263760D01*
X51674101Y-121318390D01*
X51649500Y-121473713D01*
X51649500Y-121686287D01*
X51682754Y-121896243D01*
X51699438Y-121947592D01*
X51748444Y-122098414D01*
X51844951Y-122287820D01*
X51969890Y-122459786D01*
X52120213Y-122610109D01*
X52292182Y-122735050D01*
X52300946Y-122739516D01*
X52351742Y-122787491D01*
X52368536Y-122855312D01*
X52345998Y-122921447D01*
X52300946Y-122960484D01*
X52292182Y-122964949D01*
X52120213Y-123089890D01*
X51969890Y-123240213D01*
X51844951Y-123412179D01*
X51748444Y-123601585D01*
X51682753Y-123803760D01*
X51649500Y-124013713D01*
X51649500Y-124226286D01*
X51682753Y-124436239D01*
X51748444Y-124638414D01*
X51844951Y-124827820D01*
X51969890Y-124999786D01*
X52120213Y-125150109D01*
X52292182Y-125275050D01*
X52300946Y-125279516D01*
X52351742Y-125327491D01*
X52368536Y-125395312D01*
X52345998Y-125461447D01*
X52300946Y-125500484D01*
X52292182Y-125504949D01*
X52120213Y-125629890D01*
X51969890Y-125780213D01*
X51844951Y-125952179D01*
X51748444Y-126141585D01*
X51682753Y-126343760D01*
X51658358Y-126497786D01*
X51649500Y-126553713D01*
X51649500Y-126766287D01*
X51649534Y-126766503D01*
X51674405Y-126923534D01*
X51682754Y-126976243D01*
X51693817Y-127010292D01*
X51748444Y-127178414D01*
X51844951Y-127367820D01*
X51969890Y-127539786D01*
X52120213Y-127690109D01*
X52292182Y-127815050D01*
X52300946Y-127819516D01*
X52351742Y-127867491D01*
X52368536Y-127935312D01*
X52345998Y-128001447D01*
X52300946Y-128040484D01*
X52292182Y-128044949D01*
X52120213Y-128169890D01*
X51969890Y-128320213D01*
X51844951Y-128492179D01*
X51748444Y-128681585D01*
X51682753Y-128883760D01*
X51665973Y-128989707D01*
X51649500Y-129093713D01*
X51649500Y-129306287D01*
X51682754Y-129516243D01*
X51730845Y-129664252D01*
X51748444Y-129718414D01*
X51844951Y-129907820D01*
X51969890Y-130079786D01*
X52120213Y-130230109D01*
X52292182Y-130355050D01*
X52300946Y-130359516D01*
X52351742Y-130407491D01*
X52368536Y-130475312D01*
X52345998Y-130541447D01*
X52300946Y-130580484D01*
X52292182Y-130584949D01*
X52120213Y-130709890D01*
X51969890Y-130860213D01*
X51844951Y-131032179D01*
X51748444Y-131221585D01*
X51682753Y-131423760D01*
X51649500Y-131633713D01*
X51649500Y-131846286D01*
X51682753Y-132056239D01*
X51748444Y-132258414D01*
X51844951Y-132447820D01*
X51969890Y-132619786D01*
X52120213Y-132770109D01*
X52292182Y-132895050D01*
X52300946Y-132899516D01*
X52351742Y-132947491D01*
X52368536Y-133015312D01*
X52345998Y-133081447D01*
X52300946Y-133120484D01*
X52292182Y-133124949D01*
X52120213Y-133249890D01*
X51969890Y-133400213D01*
X51844951Y-133572179D01*
X51748444Y-133761585D01*
X51682753Y-133963760D01*
X51649500Y-134173713D01*
X51649500Y-134386286D01*
X51682753Y-134596239D01*
X51748444Y-134798414D01*
X51844951Y-134987820D01*
X51969890Y-135159786D01*
X52120213Y-135310109D01*
X52292182Y-135435050D01*
X52300946Y-135439516D01*
X52351742Y-135487491D01*
X52368536Y-135555312D01*
X52345998Y-135621447D01*
X52300946Y-135660484D01*
X52292182Y-135664949D01*
X52120213Y-135789890D01*
X51969890Y-135940213D01*
X51844951Y-136112179D01*
X51748444Y-136301585D01*
X51682753Y-136503760D01*
X51677054Y-136539744D01*
X51649500Y-136713713D01*
X51649500Y-136926287D01*
X51682754Y-137136243D01*
X51742361Y-137319695D01*
X51748444Y-137338414D01*
X51844951Y-137527820D01*
X51969890Y-137699786D01*
X52120213Y-137850109D01*
X52292182Y-137975050D01*
X52300946Y-137979516D01*
X52351742Y-138027491D01*
X52368536Y-138095312D01*
X52345998Y-138161447D01*
X52300946Y-138200484D01*
X52292182Y-138204949D01*
X52120213Y-138329890D01*
X51969890Y-138480213D01*
X51844951Y-138652179D01*
X51748444Y-138841585D01*
X51682753Y-139043760D01*
X51649500Y-139253713D01*
X51649500Y-139466286D01*
X51679409Y-139655128D01*
X51682754Y-139676243D01*
X51746877Y-139873593D01*
X51748444Y-139878414D01*
X51844951Y-140067820D01*
X51969890Y-140239786D01*
X52120213Y-140390109D01*
X52292182Y-140515050D01*
X52300946Y-140519516D01*
X52351742Y-140567491D01*
X52368536Y-140635312D01*
X52345998Y-140701447D01*
X52300946Y-140740484D01*
X52292182Y-140744949D01*
X52120213Y-140869890D01*
X51969890Y-141020213D01*
X51844951Y-141192179D01*
X51748444Y-141381585D01*
X51682753Y-141583760D01*
X51649500Y-141793713D01*
X51649500Y-142006286D01*
X51675574Y-142170914D01*
X51682754Y-142216243D01*
X51718253Y-142325498D01*
X51748444Y-142418414D01*
X51844951Y-142607820D01*
X51969890Y-142779786D01*
X52083818Y-142893714D01*
X52117303Y-142955037D01*
X52112319Y-143024729D01*
X52070447Y-143080662D01*
X52039471Y-143097577D01*
X51907912Y-143146646D01*
X51907906Y-143146649D01*
X51792812Y-143232809D01*
X51792809Y-143232812D01*
X51706649Y-143347906D01*
X51706645Y-143347913D01*
X51656403Y-143482620D01*
X51656401Y-143482627D01*
X51650000Y-143542155D01*
X51650000Y-144190000D01*
X52566988Y-144190000D01*
X52534075Y-144247007D01*
X52500000Y-144374174D01*
X52500000Y-144505826D01*
X52534075Y-144632993D01*
X52566988Y-144690000D01*
X51650000Y-144690000D01*
X51650000Y-145337844D01*
X51656401Y-145397372D01*
X51656403Y-145397379D01*
X51706645Y-145532086D01*
X51706649Y-145532093D01*
X51792809Y-145647187D01*
X51792812Y-145647190D01*
X51907906Y-145733350D01*
X51907913Y-145733354D01*
X52042620Y-145783596D01*
X52042627Y-145783598D01*
X52102155Y-145789999D01*
X52102172Y-145790000D01*
X52750000Y-145790000D01*
X52750000Y-144873012D01*
X52807007Y-144905925D01*
X52934174Y-144940000D01*
X53065826Y-144940000D01*
X53192993Y-144905925D01*
X53250000Y-144873012D01*
X53250000Y-145790000D01*
X53897828Y-145790000D01*
X53897844Y-145789999D01*
X53957372Y-145783598D01*
X53957379Y-145783596D01*
X54092086Y-145733354D01*
X54092093Y-145733350D01*
X54207187Y-145647190D01*
X54207190Y-145647187D01*
X54293350Y-145532093D01*
X54293354Y-145532086D01*
X54343596Y-145397379D01*
X54343598Y-145397372D01*
X54349999Y-145337844D01*
X54350000Y-145337827D01*
X54350000Y-144690000D01*
X53433012Y-144690000D01*
X53465925Y-144632993D01*
X53500000Y-144505826D01*
X53500000Y-144401577D01*
X56249500Y-144401577D01*
X56249500Y-144598422D01*
X56280290Y-144792826D01*
X56341117Y-144980029D01*
X56430476Y-145155405D01*
X56546172Y-145314646D01*
X56685354Y-145453828D01*
X56844595Y-145569524D01*
X56927455Y-145611743D01*
X57019970Y-145658882D01*
X57019972Y-145658882D01*
X57019975Y-145658884D01*
X57120317Y-145691487D01*
X57207173Y-145719709D01*
X57401578Y-145750500D01*
X57401583Y-145750500D01*
X57598422Y-145750500D01*
X57792826Y-145719709D01*
X57980025Y-145658884D01*
X58155405Y-145569524D01*
X58314646Y-145453828D01*
X58453828Y-145314646D01*
X58569524Y-145155405D01*
X58658884Y-144980025D01*
X58719709Y-144792826D01*
X58745024Y-144632993D01*
X58750500Y-144598422D01*
X58750500Y-144401577D01*
X136749500Y-144401577D01*
X136749500Y-144598422D01*
X136780290Y-144792826D01*
X136841117Y-144980029D01*
X136930476Y-145155405D01*
X137046172Y-145314646D01*
X137185354Y-145453828D01*
X137344595Y-145569524D01*
X137427455Y-145611743D01*
X137519970Y-145658882D01*
X137519972Y-145658882D01*
X137519975Y-145658884D01*
X137620317Y-145691487D01*
X137707173Y-145719709D01*
X137901578Y-145750500D01*
X137901583Y-145750500D01*
X138098422Y-145750500D01*
X138292826Y-145719709D01*
X138480025Y-145658884D01*
X138655405Y-145569524D01*
X138814646Y-145453828D01*
X138953828Y-145314646D01*
X139069524Y-145155405D01*
X139158884Y-144980025D01*
X139219709Y-144792826D01*
X139245024Y-144632993D01*
X139250500Y-144598422D01*
X139250500Y-144401577D01*
X139219709Y-144207173D01*
X139158882Y-144019970D01*
X139069523Y-143844594D01*
X138953828Y-143685354D01*
X138814646Y-143546172D01*
X138655405Y-143430476D01*
X138480029Y-143341117D01*
X138292826Y-143280290D01*
X138098422Y-143249500D01*
X138098417Y-143249500D01*
X137901583Y-143249500D01*
X137901578Y-143249500D01*
X137707173Y-143280290D01*
X137519970Y-143341117D01*
X137344594Y-143430476D01*
X137253741Y-143496485D01*
X137185354Y-143546172D01*
X137185352Y-143546174D01*
X137185351Y-143546174D01*
X137046174Y-143685351D01*
X137046174Y-143685352D01*
X137046172Y-143685354D01*
X136996485Y-143753741D01*
X136930476Y-143844594D01*
X136841117Y-144019970D01*
X136780290Y-144207173D01*
X136749500Y-144401577D01*
X58750500Y-144401577D01*
X58719709Y-144207173D01*
X58658882Y-144019970D01*
X58569523Y-143844594D01*
X58453828Y-143685354D01*
X58314646Y-143546172D01*
X58155405Y-143430476D01*
X57980029Y-143341117D01*
X57792826Y-143280290D01*
X57598422Y-143249500D01*
X57598417Y-143249500D01*
X57401583Y-143249500D01*
X57401578Y-143249500D01*
X57207173Y-143280290D01*
X57019970Y-143341117D01*
X56844594Y-143430476D01*
X56753741Y-143496485D01*
X56685354Y-143546172D01*
X56685352Y-143546174D01*
X56685351Y-143546174D01*
X56546174Y-143685351D01*
X56546174Y-143685352D01*
X56546172Y-143685354D01*
X56496485Y-143753741D01*
X56430476Y-143844594D01*
X56341117Y-144019970D01*
X56280290Y-144207173D01*
X56249500Y-144401577D01*
X53500000Y-144401577D01*
X53500000Y-144374174D01*
X53465925Y-144247007D01*
X53433012Y-144190000D01*
X54350000Y-144190000D01*
X54350000Y-143542172D01*
X54349999Y-143542155D01*
X54343598Y-143482627D01*
X54343596Y-143482620D01*
X54293354Y-143347913D01*
X54293350Y-143347906D01*
X54207190Y-143232812D01*
X54207187Y-143232809D01*
X54092093Y-143146649D01*
X54092088Y-143146646D01*
X53960528Y-143097577D01*
X53904595Y-143055705D01*
X53880178Y-142990241D01*
X53895030Y-142921968D01*
X53916175Y-142893720D01*
X54030104Y-142779792D01*
X54155051Y-142607816D01*
X54251557Y-142418412D01*
X54317246Y-142216243D01*
X54350500Y-142006287D01*
X54350500Y-141793713D01*
X54317246Y-141583757D01*
X54251557Y-141381588D01*
X54155051Y-141192184D01*
X54155049Y-141192181D01*
X54155048Y-141192179D01*
X54030109Y-141020213D01*
X53879786Y-140869890D01*
X53707820Y-140744951D01*
X53707115Y-140744591D01*
X53699054Y-140740485D01*
X53695355Y-140736991D01*
X53690444Y-140735657D01*
X53670209Y-140713242D01*
X53648259Y-140692512D01*
X53647035Y-140687572D01*
X53643625Y-140683794D01*
X53638721Y-140653999D01*
X53631463Y-140624692D01*
X53633104Y-140619874D01*
X53632278Y-140614852D01*
X53643717Y-140588389D01*
X64399500Y-140588389D01*
X64399500Y-141311611D01*
X64426598Y-141482701D01*
X64480127Y-141647445D01*
X64558768Y-141801788D01*
X64660586Y-141941928D01*
X64783072Y-142064414D01*
X64923212Y-142166232D01*
X65077555Y-142244873D01*
X65242299Y-142298402D01*
X65413389Y-142325500D01*
X65413390Y-142325500D01*
X65586610Y-142325500D01*
X65586611Y-142325500D01*
X65757701Y-142298402D01*
X65922445Y-142244873D01*
X66076788Y-142166232D01*
X66216928Y-142064414D01*
X66339414Y-141941928D01*
X66399682Y-141858975D01*
X66455012Y-141816311D01*
X66524626Y-141810332D01*
X66586421Y-141842938D01*
X66600315Y-141858973D01*
X66660586Y-141941928D01*
X66783072Y-142064414D01*
X66923212Y-142166232D01*
X67077555Y-142244873D01*
X67242299Y-142298402D01*
X67413389Y-142325500D01*
X67413390Y-142325500D01*
X67586610Y-142325500D01*
X67586611Y-142325500D01*
X67757701Y-142298402D01*
X67922445Y-142244873D01*
X68076788Y-142166232D01*
X68216928Y-142064414D01*
X68339414Y-141941928D01*
X68399682Y-141858975D01*
X68455012Y-141816311D01*
X68524626Y-141810332D01*
X68586421Y-141842938D01*
X68600315Y-141858973D01*
X68660586Y-141941928D01*
X68783072Y-142064414D01*
X68923212Y-142166232D01*
X69077555Y-142244873D01*
X69242299Y-142298402D01*
X69413389Y-142325500D01*
X69413390Y-142325500D01*
X69586610Y-142325500D01*
X69586611Y-142325500D01*
X69757701Y-142298402D01*
X69922445Y-142244873D01*
X70076788Y-142166232D01*
X70216928Y-142064414D01*
X70339414Y-141941928D01*
X70399682Y-141858975D01*
X70455012Y-141816311D01*
X70524626Y-141810332D01*
X70586421Y-141842938D01*
X70600315Y-141858973D01*
X70660586Y-141941928D01*
X70783072Y-142064414D01*
X70923212Y-142166232D01*
X71077555Y-142244873D01*
X71242299Y-142298402D01*
X71413389Y-142325500D01*
X71413390Y-142325500D01*
X71586610Y-142325500D01*
X71586611Y-142325500D01*
X71757701Y-142298402D01*
X71922445Y-142244873D01*
X72076788Y-142166232D01*
X72216928Y-142064414D01*
X72339414Y-141941928D01*
X72399682Y-141858975D01*
X72455012Y-141816311D01*
X72524626Y-141810332D01*
X72586421Y-141842938D01*
X72600315Y-141858973D01*
X72660586Y-141941928D01*
X72783072Y-142064414D01*
X72923212Y-142166232D01*
X73077555Y-142244873D01*
X73242299Y-142298402D01*
X73413389Y-142325500D01*
X73413390Y-142325500D01*
X73586610Y-142325500D01*
X73586611Y-142325500D01*
X73757701Y-142298402D01*
X73922445Y-142244873D01*
X74076788Y-142166232D01*
X74216928Y-142064414D01*
X74324472Y-141956869D01*
X74385791Y-141923387D01*
X74455483Y-141928371D01*
X74511417Y-141970242D01*
X74517688Y-141979456D01*
X74557285Y-142043652D01*
X74557288Y-142043656D01*
X74681344Y-142167712D01*
X74830666Y-142259814D01*
X74997203Y-142314999D01*
X75099991Y-142325500D01*
X75900008Y-142325499D01*
X75900016Y-142325498D01*
X75900019Y-142325498D01*
X75956302Y-142319748D01*
X76002797Y-142314999D01*
X76169334Y-142259814D01*
X76318656Y-142167712D01*
X76442712Y-142043656D01*
X76534814Y-141894334D01*
X76589999Y-141727797D01*
X76600500Y-141625009D01*
X76600499Y-140388575D01*
X94300000Y-140388575D01*
X94300000Y-140611424D01*
X94329085Y-140832354D01*
X94329088Y-140832367D01*
X94386763Y-141047618D01*
X94472045Y-141253502D01*
X94472054Y-141253520D01*
X94583464Y-141446491D01*
X94583473Y-141446504D01*
X94634040Y-141512403D01*
X94634043Y-141512403D01*
X95435387Y-140711059D01*
X95440889Y-140731591D01*
X95519881Y-140868408D01*
X95631592Y-140980119D01*
X95768409Y-141059111D01*
X95788940Y-141064612D01*
X94987595Y-141865955D01*
X94987595Y-141865956D01*
X95053507Y-141916533D01*
X95246485Y-142027949D01*
X95246497Y-142027954D01*
X95452381Y-142113236D01*
X95667632Y-142170911D01*
X95667645Y-142170914D01*
X95888575Y-142200000D01*
X96111425Y-142200000D01*
X96332354Y-142170914D01*
X96332367Y-142170911D01*
X96547618Y-142113236D01*
X96753502Y-142027954D01*
X96753514Y-142027949D01*
X96946498Y-141916530D01*
X97012403Y-141865957D01*
X97012404Y-141865956D01*
X96211059Y-141064612D01*
X96231591Y-141059111D01*
X96368408Y-140980119D01*
X96480119Y-140868408D01*
X96559111Y-140731591D01*
X96564612Y-140711059D01*
X97365956Y-141512404D01*
X97365957Y-141512403D01*
X97416530Y-141446498D01*
X97527949Y-141253514D01*
X97527954Y-141253502D01*
X97561439Y-141172666D01*
X97605281Y-141118262D01*
X97671575Y-141096198D01*
X97739274Y-141113478D01*
X97786884Y-141164615D01*
X97800000Y-141220119D01*
X97800000Y-141499985D01*
X97810493Y-141602689D01*
X97810494Y-141602696D01*
X97865641Y-141769118D01*
X97865643Y-141769123D01*
X97957684Y-141918344D01*
X98081655Y-142042315D01*
X98230876Y-142134356D01*
X98230881Y-142134358D01*
X98397303Y-142189505D01*
X98397310Y-142189506D01*
X98500014Y-142199999D01*
X98500027Y-142200000D01*
X99250000Y-142200000D01*
X99250000Y-141048482D01*
X99268409Y-141059111D01*
X99421009Y-141100000D01*
X99578991Y-141100000D01*
X99731591Y-141059111D01*
X99750000Y-141048482D01*
X99750000Y-142200000D01*
X100499973Y-142200000D01*
X100499985Y-142199999D01*
X100602689Y-142189506D01*
X100602696Y-142189505D01*
X100769118Y-142134358D01*
X100769123Y-142134356D01*
X100918344Y-142042315D01*
X101042315Y-141918344D01*
X101134356Y-141769123D01*
X101134358Y-141769118D01*
X101189505Y-141602696D01*
X101189506Y-141602689D01*
X101199999Y-141499985D01*
X101200000Y-141499972D01*
X101200000Y-140750000D01*
X100048482Y-140750000D01*
X100059111Y-140731591D01*
X100100000Y-140578991D01*
X100100000Y-140421009D01*
X100059111Y-140268409D01*
X100048482Y-140250000D01*
X101200000Y-140250000D01*
X101200000Y-139500027D01*
X101199999Y-139500014D01*
X101189506Y-139397310D01*
X101189505Y-139397303D01*
X101134358Y-139230881D01*
X101134356Y-139230876D01*
X101042315Y-139081655D01*
X100918344Y-138957684D01*
X100769123Y-138865643D01*
X100769118Y-138865641D01*
X100602696Y-138810494D01*
X100602689Y-138810493D01*
X100499985Y-138800000D01*
X99750000Y-138800000D01*
X99750000Y-139951517D01*
X99731591Y-139940889D01*
X99578991Y-139900000D01*
X99421009Y-139900000D01*
X99268409Y-139940889D01*
X99250000Y-139951517D01*
X99250000Y-138800000D01*
X98500014Y-138800000D01*
X98397310Y-138810493D01*
X98397303Y-138810494D01*
X98230881Y-138865641D01*
X98230876Y-138865643D01*
X98081655Y-138957684D01*
X97957684Y-139081655D01*
X97865643Y-139230876D01*
X97865641Y-139230881D01*
X97810494Y-139397303D01*
X97810493Y-139397310D01*
X97800000Y-139500014D01*
X97800000Y-139779880D01*
X97780315Y-139846919D01*
X97727511Y-139892674D01*
X97658353Y-139902618D01*
X97594797Y-139873593D01*
X97561439Y-139827334D01*
X97527952Y-139746492D01*
X97527949Y-139746485D01*
X97416533Y-139553507D01*
X97365956Y-139487595D01*
X97365955Y-139487595D01*
X96564612Y-140288939D01*
X96559111Y-140268409D01*
X96480119Y-140131592D01*
X96368408Y-140019881D01*
X96231591Y-139940889D01*
X96211058Y-139935387D01*
X97012403Y-139134043D01*
X97012403Y-139134040D01*
X96946504Y-139083473D01*
X96946491Y-139083464D01*
X96753520Y-138972054D01*
X96753502Y-138972045D01*
X96547618Y-138886763D01*
X96332367Y-138829088D01*
X96332354Y-138829085D01*
X96111425Y-138800000D01*
X95888575Y-138800000D01*
X95667645Y-138829085D01*
X95667632Y-138829088D01*
X95452381Y-138886763D01*
X95246497Y-138972045D01*
X95246479Y-138972054D01*
X95053511Y-139083462D01*
X94987595Y-139134042D01*
X95788941Y-139935387D01*
X95768409Y-139940889D01*
X95631592Y-140019881D01*
X95519881Y-140131592D01*
X95440889Y-140268409D01*
X95435387Y-140288940D01*
X94634042Y-139487595D01*
X94583462Y-139553511D01*
X94472054Y-139746479D01*
X94472045Y-139746497D01*
X94386763Y-139952381D01*
X94329088Y-140167632D01*
X94329085Y-140167645D01*
X94300000Y-140388575D01*
X76600499Y-140388575D01*
X76600499Y-140274992D01*
X76589999Y-140172203D01*
X76534814Y-140005666D01*
X76442712Y-139856344D01*
X76318656Y-139732288D01*
X76193559Y-139655128D01*
X76169336Y-139640187D01*
X76169331Y-139640185D01*
X76167862Y-139639698D01*
X76002797Y-139585001D01*
X76002795Y-139585000D01*
X75900010Y-139574500D01*
X75099998Y-139574500D01*
X75099980Y-139574501D01*
X74997203Y-139585000D01*
X74997200Y-139585001D01*
X74830668Y-139640185D01*
X74830663Y-139640187D01*
X74681342Y-139732289D01*
X74557287Y-139856344D01*
X74517688Y-139920544D01*
X74465739Y-139967268D01*
X74396777Y-139978489D01*
X74332695Y-139950645D01*
X74324469Y-139943127D01*
X74216930Y-139835588D01*
X74216928Y-139835586D01*
X74076788Y-139733768D01*
X73922445Y-139655127D01*
X73757701Y-139601598D01*
X73757699Y-139601597D01*
X73757698Y-139601597D01*
X73626271Y-139580781D01*
X73586611Y-139574500D01*
X73413389Y-139574500D01*
X73373728Y-139580781D01*
X73242302Y-139601597D01*
X73077552Y-139655128D01*
X72923211Y-139733768D01*
X72859744Y-139779880D01*
X72783072Y-139835586D01*
X72783070Y-139835588D01*
X72783069Y-139835588D01*
X72660588Y-139958069D01*
X72660581Y-139958078D01*
X72600317Y-140041023D01*
X72544987Y-140083689D01*
X72475374Y-140089667D01*
X72413579Y-140057061D01*
X72399683Y-140041023D01*
X72339418Y-139958078D01*
X72339414Y-139958072D01*
X72216928Y-139835586D01*
X72076788Y-139733768D01*
X71922445Y-139655127D01*
X71757701Y-139601598D01*
X71757699Y-139601597D01*
X71757698Y-139601597D01*
X71626271Y-139580781D01*
X71586611Y-139574500D01*
X71413389Y-139574500D01*
X71373728Y-139580781D01*
X71242302Y-139601597D01*
X71077552Y-139655128D01*
X70923211Y-139733768D01*
X70859744Y-139779880D01*
X70783072Y-139835586D01*
X70783070Y-139835588D01*
X70783069Y-139835588D01*
X70660588Y-139958069D01*
X70660581Y-139958078D01*
X70600317Y-140041023D01*
X70544987Y-140083689D01*
X70475374Y-140089667D01*
X70413579Y-140057061D01*
X70399683Y-140041023D01*
X70339418Y-139958078D01*
X70339414Y-139958072D01*
X70216928Y-139835586D01*
X70076788Y-139733768D01*
X69922445Y-139655127D01*
X69757701Y-139601598D01*
X69757699Y-139601597D01*
X69757698Y-139601597D01*
X69626271Y-139580781D01*
X69586611Y-139574500D01*
X69413389Y-139574500D01*
X69373728Y-139580781D01*
X69242302Y-139601597D01*
X69077552Y-139655128D01*
X68923211Y-139733768D01*
X68859744Y-139779880D01*
X68783072Y-139835586D01*
X68783070Y-139835588D01*
X68783069Y-139835588D01*
X68660588Y-139958069D01*
X68660581Y-139958078D01*
X68600317Y-140041023D01*
X68544987Y-140083689D01*
X68475374Y-140089667D01*
X68413579Y-140057061D01*
X68399683Y-140041023D01*
X68339418Y-139958078D01*
X68339414Y-139958072D01*
X68216928Y-139835586D01*
X68076788Y-139733768D01*
X67922445Y-139655127D01*
X67757701Y-139601598D01*
X67757699Y-139601597D01*
X67757698Y-139601597D01*
X67626271Y-139580781D01*
X67586611Y-139574500D01*
X67413389Y-139574500D01*
X67373728Y-139580781D01*
X67242302Y-139601597D01*
X67077552Y-139655128D01*
X66923211Y-139733768D01*
X66859744Y-139779880D01*
X66783072Y-139835586D01*
X66783070Y-139835588D01*
X66783069Y-139835588D01*
X66660588Y-139958069D01*
X66660581Y-139958078D01*
X66600317Y-140041023D01*
X66544987Y-140083689D01*
X66475374Y-140089667D01*
X66413579Y-140057061D01*
X66399683Y-140041023D01*
X66339418Y-139958078D01*
X66339414Y-139958072D01*
X66216928Y-139835586D01*
X66076788Y-139733768D01*
X65922445Y-139655127D01*
X65757701Y-139601598D01*
X65757699Y-139601597D01*
X65757698Y-139601597D01*
X65626271Y-139580781D01*
X65586611Y-139574500D01*
X65413389Y-139574500D01*
X65373728Y-139580781D01*
X65242302Y-139601597D01*
X65077552Y-139655128D01*
X64923211Y-139733768D01*
X64859744Y-139779880D01*
X64783072Y-139835586D01*
X64783070Y-139835588D01*
X64783069Y-139835588D01*
X64660588Y-139958069D01*
X64660588Y-139958070D01*
X64660586Y-139958072D01*
X64660582Y-139958078D01*
X64558768Y-140098211D01*
X64480128Y-140252552D01*
X64426597Y-140417302D01*
X64410408Y-140519516D01*
X64399500Y-140588389D01*
X53643717Y-140588389D01*
X53644260Y-140587134D01*
X53653999Y-140558556D01*
X53658532Y-140554123D01*
X53660004Y-140550719D01*
X53671002Y-140541930D01*
X53686202Y-140527069D01*
X53692396Y-140522907D01*
X53707816Y-140515051D01*
X53879792Y-140390104D01*
X54030104Y-140239792D01*
X54030106Y-140239788D01*
X54030109Y-140239786D01*
X54155048Y-140067820D01*
X54155047Y-140067820D01*
X54155051Y-140067816D01*
X54251557Y-139878412D01*
X54317246Y-139676243D01*
X54350500Y-139466287D01*
X54350500Y-139253713D01*
X54317246Y-139043757D01*
X54251557Y-138841588D01*
X54155051Y-138652184D01*
X54155049Y-138652181D01*
X54155048Y-138652179D01*
X54030109Y-138480213D01*
X53879786Y-138329890D01*
X53707820Y-138204951D01*
X53707115Y-138204591D01*
X53699054Y-138200485D01*
X53648259Y-138152512D01*
X53631463Y-138084692D01*
X53653999Y-138018556D01*
X53699054Y-137979515D01*
X53707816Y-137975051D01*
X53729789Y-137959086D01*
X53879786Y-137850109D01*
X53879788Y-137850106D01*
X53879792Y-137850104D01*
X53965336Y-137764560D01*
X120889500Y-137764560D01*
X120889500Y-137975439D01*
X120930636Y-138182245D01*
X120930638Y-138182253D01*
X121011333Y-138377069D01*
X121011338Y-138377078D01*
X121128487Y-138552403D01*
X121128490Y-138552407D01*
X121277592Y-138701509D01*
X121277596Y-138701512D01*
X121452921Y-138818661D01*
X121452927Y-138818664D01*
X121452928Y-138818665D01*
X121647747Y-138899362D01*
X121854560Y-138940499D01*
X121854564Y-138940500D01*
X121854565Y-138940500D01*
X122065436Y-138940500D01*
X122065437Y-138940499D01*
X122272253Y-138899362D01*
X122467072Y-138818665D01*
X122642404Y-138701512D01*
X122791512Y-138552404D01*
X122908665Y-138377072D01*
X122989362Y-138182253D01*
X123030500Y-137975435D01*
X123030500Y-137764565D01*
X123030499Y-137764560D01*
X123429500Y-137764560D01*
X123429500Y-137975439D01*
X123470636Y-138182245D01*
X123470638Y-138182253D01*
X123551333Y-138377069D01*
X123551338Y-138377078D01*
X123668487Y-138552403D01*
X123668490Y-138552407D01*
X123817592Y-138701509D01*
X123817596Y-138701512D01*
X123992921Y-138818661D01*
X123992927Y-138818664D01*
X123992928Y-138818665D01*
X124187747Y-138899362D01*
X124394560Y-138940499D01*
X124394564Y-138940500D01*
X124394565Y-138940500D01*
X124605436Y-138940500D01*
X124605437Y-138940499D01*
X124812253Y-138899362D01*
X125007072Y-138818665D01*
X125182404Y-138701512D01*
X125331512Y-138552404D01*
X125448665Y-138377072D01*
X125529362Y-138182253D01*
X125570500Y-137975435D01*
X125570500Y-137764565D01*
X125570499Y-137764560D01*
X125969500Y-137764560D01*
X125969500Y-137975439D01*
X126010636Y-138182245D01*
X126010638Y-138182253D01*
X126091333Y-138377069D01*
X126091338Y-138377078D01*
X126208487Y-138552403D01*
X126208490Y-138552407D01*
X126357592Y-138701509D01*
X126357596Y-138701512D01*
X126532921Y-138818661D01*
X126532927Y-138818664D01*
X126532928Y-138818665D01*
X126727747Y-138899362D01*
X126934560Y-138940499D01*
X126934564Y-138940500D01*
X126934565Y-138940500D01*
X127145436Y-138940500D01*
X127145437Y-138940499D01*
X127352253Y-138899362D01*
X127547072Y-138818665D01*
X127722404Y-138701512D01*
X127871512Y-138552404D01*
X127988665Y-138377072D01*
X128069362Y-138182253D01*
X128110500Y-137975435D01*
X128110500Y-137764565D01*
X128110499Y-137764560D01*
X128509500Y-137764560D01*
X128509500Y-137975439D01*
X128550636Y-138182245D01*
X128550638Y-138182253D01*
X128631333Y-138377069D01*
X128631338Y-138377078D01*
X128748487Y-138552403D01*
X128748490Y-138552407D01*
X128897592Y-138701509D01*
X128897596Y-138701512D01*
X129072921Y-138818661D01*
X129072927Y-138818664D01*
X129072928Y-138818665D01*
X129267747Y-138899362D01*
X129474560Y-138940499D01*
X129474564Y-138940500D01*
X129474565Y-138940500D01*
X129685436Y-138940500D01*
X129685437Y-138940499D01*
X129892253Y-138899362D01*
X130087072Y-138818665D01*
X130262404Y-138701512D01*
X130411512Y-138552404D01*
X130528665Y-138377072D01*
X130609362Y-138182253D01*
X130650500Y-137975435D01*
X130650500Y-137764565D01*
X130650499Y-137764560D01*
X131049500Y-137764560D01*
X131049500Y-137975439D01*
X131090636Y-138182245D01*
X131090638Y-138182253D01*
X131171333Y-138377069D01*
X131171338Y-138377078D01*
X131288487Y-138552403D01*
X131288490Y-138552407D01*
X131437592Y-138701509D01*
X131437596Y-138701512D01*
X131612921Y-138818661D01*
X131612927Y-138818664D01*
X131612928Y-138818665D01*
X131807747Y-138899362D01*
X132014560Y-138940499D01*
X132014564Y-138940500D01*
X132014565Y-138940500D01*
X132225436Y-138940500D01*
X132225437Y-138940499D01*
X132432253Y-138899362D01*
X132627072Y-138818665D01*
X132802404Y-138701512D01*
X132951512Y-138552404D01*
X133068665Y-138377072D01*
X133149362Y-138182253D01*
X133190500Y-137975435D01*
X133190500Y-137764565D01*
X133149362Y-137557747D01*
X133068665Y-137362928D01*
X133068664Y-137362927D01*
X133068661Y-137362921D01*
X132951512Y-137187596D01*
X132951509Y-137187592D01*
X132802407Y-137038490D01*
X132802403Y-137038487D01*
X132627078Y-136921338D01*
X132627069Y-136921333D01*
X132432253Y-136840638D01*
X132432245Y-136840636D01*
X132225439Y-136799500D01*
X132225435Y-136799500D01*
X132014565Y-136799500D01*
X132014560Y-136799500D01*
X131807754Y-136840636D01*
X131807746Y-136840638D01*
X131612930Y-136921333D01*
X131612921Y-136921338D01*
X131437596Y-137038487D01*
X131437592Y-137038490D01*
X131288490Y-137187592D01*
X131288487Y-137187596D01*
X131171338Y-137362921D01*
X131171333Y-137362930D01*
X131090638Y-137557746D01*
X131090636Y-137557754D01*
X131049500Y-137764560D01*
X130650499Y-137764560D01*
X130609362Y-137557747D01*
X130528665Y-137362928D01*
X130528664Y-137362927D01*
X130528661Y-137362921D01*
X130411512Y-137187596D01*
X130411509Y-137187592D01*
X130262407Y-137038490D01*
X130262403Y-137038487D01*
X130087078Y-136921338D01*
X130087069Y-136921333D01*
X129892253Y-136840638D01*
X129892245Y-136840636D01*
X129685439Y-136799500D01*
X129685435Y-136799500D01*
X129474565Y-136799500D01*
X129474560Y-136799500D01*
X129267754Y-136840636D01*
X129267746Y-136840638D01*
X129072930Y-136921333D01*
X129072921Y-136921338D01*
X128897596Y-137038487D01*
X128897592Y-137038490D01*
X128748490Y-137187592D01*
X128748487Y-137187596D01*
X128631338Y-137362921D01*
X128631333Y-137362930D01*
X128550638Y-137557746D01*
X128550636Y-137557754D01*
X128509500Y-137764560D01*
X128110499Y-137764560D01*
X128069362Y-137557747D01*
X127988665Y-137362928D01*
X127988664Y-137362927D01*
X127988661Y-137362921D01*
X127871512Y-137187596D01*
X127871509Y-137187592D01*
X127722407Y-137038490D01*
X127722403Y-137038487D01*
X127547078Y-136921338D01*
X127547069Y-136921333D01*
X127352253Y-136840638D01*
X127352245Y-136840636D01*
X127145439Y-136799500D01*
X127145435Y-136799500D01*
X126934565Y-136799500D01*
X126934560Y-136799500D01*
X126727754Y-136840636D01*
X126727746Y-136840638D01*
X126532930Y-136921333D01*
X126532921Y-136921338D01*
X126357596Y-137038487D01*
X126357592Y-137038490D01*
X126208490Y-137187592D01*
X126208487Y-137187596D01*
X126091338Y-137362921D01*
X126091333Y-137362930D01*
X126010638Y-137557746D01*
X126010636Y-137557754D01*
X125969500Y-137764560D01*
X125570499Y-137764560D01*
X125529362Y-137557747D01*
X125448665Y-137362928D01*
X125448664Y-137362927D01*
X125448661Y-137362921D01*
X125331512Y-137187596D01*
X125331509Y-137187592D01*
X125182407Y-137038490D01*
X125182403Y-137038487D01*
X125007078Y-136921338D01*
X125007069Y-136921333D01*
X124812253Y-136840638D01*
X124812245Y-136840636D01*
X124605439Y-136799500D01*
X124605435Y-136799500D01*
X124394565Y-136799500D01*
X124394560Y-136799500D01*
X124187754Y-136840636D01*
X124187746Y-136840638D01*
X123992930Y-136921333D01*
X123992921Y-136921338D01*
X123817596Y-137038487D01*
X123817592Y-137038490D01*
X123668490Y-137187592D01*
X123668487Y-137187596D01*
X123551338Y-137362921D01*
X123551333Y-137362930D01*
X123470638Y-137557746D01*
X123470636Y-137557754D01*
X123429500Y-137764560D01*
X123030499Y-137764560D01*
X122989362Y-137557747D01*
X122908665Y-137362928D01*
X122908664Y-137362927D01*
X122908661Y-137362921D01*
X122791512Y-137187596D01*
X122791509Y-137187592D01*
X122642407Y-137038490D01*
X122642403Y-137038487D01*
X122467078Y-136921338D01*
X122467069Y-136921333D01*
X122272253Y-136840638D01*
X122272245Y-136840636D01*
X122065439Y-136799500D01*
X122065435Y-136799500D01*
X121854565Y-136799500D01*
X121854560Y-136799500D01*
X121647754Y-136840636D01*
X121647746Y-136840638D01*
X121452930Y-136921333D01*
X121452921Y-136921338D01*
X121277596Y-137038487D01*
X121277592Y-137038490D01*
X121128490Y-137187592D01*
X121128487Y-137187596D01*
X121011338Y-137362921D01*
X121011333Y-137362930D01*
X120930638Y-137557746D01*
X120930636Y-137557754D01*
X120889500Y-137764560D01*
X53965336Y-137764560D01*
X54030104Y-137699792D01*
X54034832Y-137693283D01*
X54040425Y-137685587D01*
X54089083Y-137618613D01*
X54155051Y-137527816D01*
X54251557Y-137338412D01*
X54317246Y-137136243D01*
X54350500Y-136926287D01*
X54350500Y-136713713D01*
X54317246Y-136503757D01*
X54251557Y-136301588D01*
X54155051Y-136112184D01*
X54155049Y-136112181D01*
X54155048Y-136112179D01*
X54030109Y-135940213D01*
X53879786Y-135789890D01*
X53707820Y-135664951D01*
X53707115Y-135664591D01*
X53699054Y-135660485D01*
X53648259Y-135612512D01*
X53631463Y-135544692D01*
X53653999Y-135478556D01*
X53699054Y-135439515D01*
X53707816Y-135435051D01*
X53729789Y-135419086D01*
X53879786Y-135310109D01*
X53879788Y-135310106D01*
X53879792Y-135310104D01*
X54030104Y-135159792D01*
X54030106Y-135159788D01*
X54030109Y-135159786D01*
X54155048Y-134987820D01*
X54155047Y-134987820D01*
X54155051Y-134987816D01*
X54251557Y-134798412D01*
X54317246Y-134596243D01*
X54350500Y-134386287D01*
X54350500Y-134173713D01*
X54317246Y-133963757D01*
X54251557Y-133761588D01*
X54155051Y-133572184D01*
X54155049Y-133572181D01*
X54155048Y-133572179D01*
X54030109Y-133400213D01*
X53879786Y-133249890D01*
X53707820Y-133124951D01*
X53707115Y-133124591D01*
X53699054Y-133120485D01*
X53648259Y-133072512D01*
X53631463Y-133004692D01*
X53653999Y-132938556D01*
X53699054Y-132899515D01*
X53707816Y-132895051D01*
X53729789Y-132879086D01*
X53879786Y-132770109D01*
X53879788Y-132770106D01*
X53879792Y-132770104D01*
X54030104Y-132619792D01*
X54030106Y-132619788D01*
X54030109Y-132619786D01*
X54155048Y-132447820D01*
X54155047Y-132447820D01*
X54155051Y-132447816D01*
X54251557Y-132258412D01*
X54317246Y-132056243D01*
X54350500Y-131846287D01*
X54350500Y-131633713D01*
X54317246Y-131423757D01*
X54251557Y-131221588D01*
X54155051Y-131032184D01*
X54155049Y-131032181D01*
X54155048Y-131032179D01*
X54030109Y-130860213D01*
X53879786Y-130709890D01*
X53707820Y-130584951D01*
X53707115Y-130584591D01*
X53699054Y-130580485D01*
X53648259Y-130532512D01*
X53631463Y-130464692D01*
X53653999Y-130398556D01*
X53699054Y-130359515D01*
X53707816Y-130355051D01*
X53782901Y-130300499D01*
X53879786Y-130230109D01*
X53879788Y-130230106D01*
X53879792Y-130230104D01*
X54030104Y-130079792D01*
X54030106Y-130079788D01*
X54030109Y-130079786D01*
X54155048Y-129907820D01*
X54155047Y-129907820D01*
X54155051Y-129907816D01*
X54251557Y-129718412D01*
X54317246Y-129516243D01*
X54350500Y-129306287D01*
X54350500Y-129093713D01*
X54317246Y-128883757D01*
X54251557Y-128681588D01*
X54155051Y-128492184D01*
X54155049Y-128492181D01*
X54155048Y-128492179D01*
X54030109Y-128320213D01*
X53879786Y-128169890D01*
X53707820Y-128044951D01*
X53707115Y-128044591D01*
X53699054Y-128040485D01*
X53648259Y-127992512D01*
X53631463Y-127924692D01*
X53653999Y-127858556D01*
X53699054Y-127819515D01*
X53707816Y-127815051D01*
X53729789Y-127799086D01*
X53879786Y-127690109D01*
X53879788Y-127690106D01*
X53879792Y-127690104D01*
X54030104Y-127539792D01*
X54030106Y-127539788D01*
X54030109Y-127539786D01*
X54155048Y-127367820D01*
X54155047Y-127367820D01*
X54155051Y-127367816D01*
X54251557Y-127178412D01*
X54317246Y-126976243D01*
X54350500Y-126766287D01*
X54350500Y-126553713D01*
X54317246Y-126343757D01*
X54251557Y-126141588D01*
X54155051Y-125952184D01*
X54155049Y-125952181D01*
X54155048Y-125952179D01*
X54132507Y-125921153D01*
X113199500Y-125921153D01*
X113199500Y-126078846D01*
X113230261Y-126233489D01*
X113230264Y-126233501D01*
X113290602Y-126379172D01*
X113290609Y-126379185D01*
X113325304Y-126431109D01*
X113346182Y-126497786D01*
X113327698Y-126565167D01*
X113325304Y-126568891D01*
X113290609Y-126620814D01*
X113290602Y-126620827D01*
X113230264Y-126766498D01*
X113230261Y-126766510D01*
X113199500Y-126921153D01*
X113199500Y-127078846D01*
X113230261Y-127233489D01*
X113230264Y-127233501D01*
X113290602Y-127379172D01*
X113290609Y-127379185D01*
X113325304Y-127431109D01*
X113346182Y-127497786D01*
X113327698Y-127565167D01*
X113325304Y-127568891D01*
X113290609Y-127620814D01*
X113290602Y-127620827D01*
X113230264Y-127766498D01*
X113230261Y-127766510D01*
X113199500Y-127921153D01*
X113199500Y-128078846D01*
X113230261Y-128233489D01*
X113230264Y-128233501D01*
X113290602Y-128379172D01*
X113290609Y-128379185D01*
X113378210Y-128510288D01*
X113378213Y-128510292D01*
X113489707Y-128621786D01*
X113489711Y-128621789D01*
X113620814Y-128709390D01*
X113620827Y-128709397D01*
X113708230Y-128745599D01*
X113766503Y-128769737D01*
X113805125Y-128777419D01*
X113833578Y-128783079D01*
X113895489Y-128815463D01*
X113897068Y-128817015D01*
X120585326Y-135505273D01*
X120585329Y-135505275D01*
X120585331Y-135505277D01*
X120691873Y-135576465D01*
X120810256Y-135625501D01*
X120810260Y-135625501D01*
X120810261Y-135625502D01*
X120935928Y-135650500D01*
X120935931Y-135650500D01*
X128495065Y-135650500D01*
X128562104Y-135670185D01*
X128563909Y-135671366D01*
X128620821Y-135709394D01*
X128620823Y-135709395D01*
X128620827Y-135709397D01*
X128721161Y-135750956D01*
X128766503Y-135769737D01*
X128921153Y-135800499D01*
X128921156Y-135800500D01*
X128921158Y-135800500D01*
X129078844Y-135800500D01*
X129078845Y-135800499D01*
X129233497Y-135769737D01*
X129379179Y-135709394D01*
X129510289Y-135621789D01*
X129621789Y-135510289D01*
X129709394Y-135379179D01*
X129769737Y-135233497D01*
X129784398Y-135159792D01*
X129796231Y-135100308D01*
X129828616Y-135038397D01*
X129889332Y-135003823D01*
X129917848Y-135000500D01*
X134379192Y-135000500D01*
X134446231Y-135020185D01*
X134466873Y-135036819D01*
X134990227Y-135560173D01*
X135023712Y-135621496D01*
X135018728Y-135691188D01*
X134976856Y-135747121D01*
X134971437Y-135750956D01*
X134839711Y-135838973D01*
X134839707Y-135838976D01*
X134728213Y-135950470D01*
X134728210Y-135950474D01*
X134640609Y-136081577D01*
X134640602Y-136081590D01*
X134580264Y-136227261D01*
X134580261Y-136227273D01*
X134549500Y-136381916D01*
X134549500Y-136539609D01*
X134575229Y-136668959D01*
X134569002Y-136738551D01*
X134526138Y-136793728D01*
X134477804Y-136814767D01*
X134347752Y-136840636D01*
X134347746Y-136840638D01*
X134152930Y-136921333D01*
X134152921Y-136921338D01*
X133977596Y-137038487D01*
X133977592Y-137038490D01*
X133828490Y-137187592D01*
X133828487Y-137187596D01*
X133711338Y-137362921D01*
X133711333Y-137362930D01*
X133630638Y-137557746D01*
X133630636Y-137557754D01*
X133589500Y-137764560D01*
X133589500Y-137975439D01*
X133630636Y-138182245D01*
X133630638Y-138182253D01*
X133711333Y-138377069D01*
X133711338Y-138377078D01*
X133828487Y-138552403D01*
X133828490Y-138552407D01*
X133977592Y-138701509D01*
X133977596Y-138701512D01*
X134152921Y-138818661D01*
X134152927Y-138818664D01*
X134152928Y-138818665D01*
X134347747Y-138899362D01*
X134554560Y-138940499D01*
X134554564Y-138940500D01*
X134554565Y-138940500D01*
X134765436Y-138940500D01*
X134765437Y-138940499D01*
X134972253Y-138899362D01*
X135167072Y-138818665D01*
X135342404Y-138701512D01*
X135491512Y-138552404D01*
X135608665Y-138377072D01*
X135689362Y-138182253D01*
X135730500Y-137975435D01*
X135730500Y-137764565D01*
X135689362Y-137557747D01*
X135608665Y-137362928D01*
X135606334Y-137357300D01*
X135608510Y-137356398D01*
X135607850Y-137353228D01*
X135600602Y-137341637D01*
X135600872Y-137319695D01*
X135596402Y-137298211D01*
X135601295Y-137285444D01*
X135601464Y-137271773D01*
X135613555Y-137253459D01*
X135621409Y-137232970D01*
X135633243Y-137223639D01*
X135639961Y-137213466D01*
X135667190Y-137196877D01*
X135669886Y-137194752D01*
X135671160Y-137194188D01*
X135729179Y-137170157D01*
X135736263Y-137165423D01*
X135746098Y-137161078D01*
X135770511Y-137157874D01*
X135794005Y-137150520D01*
X135796213Y-137150500D01*
X136161287Y-137150500D01*
X136228326Y-137170185D01*
X136274081Y-137222989D01*
X136284025Y-137292147D01*
X136264388Y-137343392D01*
X136251339Y-137362919D01*
X136251333Y-137362930D01*
X136170638Y-137557746D01*
X136170636Y-137557754D01*
X136129500Y-137764560D01*
X136129500Y-137975439D01*
X136170636Y-138182245D01*
X136170638Y-138182253D01*
X136251333Y-138377069D01*
X136251338Y-138377078D01*
X136368487Y-138552403D01*
X136368490Y-138552407D01*
X136517592Y-138701509D01*
X136517596Y-138701512D01*
X136692921Y-138818661D01*
X136692927Y-138818664D01*
X136692928Y-138818665D01*
X136887747Y-138899362D01*
X137094560Y-138940499D01*
X137094564Y-138940500D01*
X137094565Y-138940500D01*
X137305436Y-138940500D01*
X137305437Y-138940499D01*
X137512253Y-138899362D01*
X137707072Y-138818665D01*
X137882404Y-138701512D01*
X138031512Y-138552404D01*
X138148665Y-138377072D01*
X138229362Y-138182253D01*
X138270500Y-137975435D01*
X138270500Y-137764565D01*
X138229362Y-137557747D01*
X138148665Y-137362928D01*
X138148664Y-137362927D01*
X138148661Y-137362921D01*
X138031512Y-137187596D01*
X138031509Y-137187592D01*
X137882407Y-137038490D01*
X137882403Y-137038487D01*
X137707078Y-136921338D01*
X137707069Y-136921333D01*
X137512253Y-136840638D01*
X137512245Y-136840636D01*
X137326566Y-136803702D01*
X137312890Y-136796548D01*
X137297647Y-136794135D01*
X137282563Y-136780684D01*
X137264655Y-136771317D01*
X137257017Y-136757905D01*
X137245499Y-136747634D01*
X137240081Y-136728164D01*
X137230081Y-136710602D01*
X137230636Y-136694217D01*
X137226770Y-136680322D01*
X137231960Y-136655163D01*
X137232289Y-136645462D01*
X137233989Y-136639961D01*
X137275501Y-136539744D01*
X137293253Y-136450500D01*
X137300500Y-136414069D01*
X137300500Y-135316692D01*
X137300500Y-135316689D01*
X137275502Y-135191022D01*
X137275501Y-135191021D01*
X137275501Y-135191017D01*
X137226465Y-135072634D01*
X137196783Y-135028211D01*
X137196783Y-135028210D01*
X137155275Y-134966089D01*
X135533912Y-133344726D01*
X135533908Y-133344723D01*
X135427366Y-133273535D01*
X135308983Y-133224499D01*
X135308977Y-133224497D01*
X135183310Y-133199500D01*
X135183308Y-133199500D01*
X122670808Y-133199500D01*
X122603769Y-133179815D01*
X122583127Y-133163181D01*
X115922694Y-126502747D01*
X115841100Y-126421153D01*
X120199500Y-126421153D01*
X120199500Y-126578846D01*
X120230261Y-126733489D01*
X120230264Y-126733501D01*
X120290602Y-126879172D01*
X120290609Y-126879185D01*
X120378210Y-127010288D01*
X120378213Y-127010292D01*
X120489707Y-127121786D01*
X120489711Y-127121789D01*
X120620814Y-127209390D01*
X120620827Y-127209397D01*
X120766498Y-127269735D01*
X120766503Y-127269737D01*
X120921153Y-127300499D01*
X120921156Y-127300500D01*
X121075500Y-127300500D01*
X121142539Y-127320185D01*
X121188294Y-127372989D01*
X121199500Y-127424500D01*
X121199500Y-127578846D01*
X121230261Y-127733489D01*
X121230264Y-127733501D01*
X121290602Y-127879172D01*
X121290609Y-127879185D01*
X121378210Y-128010288D01*
X121378213Y-128010292D01*
X121489707Y-128121786D01*
X121489711Y-128121789D01*
X121620814Y-128209390D01*
X121620827Y-128209397D01*
X121766498Y-128269735D01*
X121766503Y-128269737D01*
X121921153Y-128300499D01*
X121921156Y-128300500D01*
X121921158Y-128300500D01*
X122078844Y-128300500D01*
X122078845Y-128300499D01*
X122233497Y-128269737D01*
X122379179Y-128209394D01*
X122436044Y-128171397D01*
X122502721Y-128150520D01*
X122504935Y-128150500D01*
X124179192Y-128150500D01*
X124246231Y-128170185D01*
X124266873Y-128186819D01*
X125682983Y-129602929D01*
X125716468Y-129664252D01*
X125716919Y-129666418D01*
X125730261Y-129733491D01*
X125730263Y-129733499D01*
X125790602Y-129879172D01*
X125790609Y-129879185D01*
X125878210Y-130010288D01*
X125878213Y-130010292D01*
X125989707Y-130121786D01*
X125989711Y-130121789D01*
X126120814Y-130209390D01*
X126120827Y-130209397D01*
X126266498Y-130269735D01*
X126266503Y-130269737D01*
X126421153Y-130300499D01*
X126421156Y-130300500D01*
X126421158Y-130300500D01*
X126578844Y-130300500D01*
X126578845Y-130300499D01*
X126733497Y-130269737D01*
X126879179Y-130209394D01*
X127010289Y-130121789D01*
X127121789Y-130010289D01*
X127209394Y-129879179D01*
X127269737Y-129733497D01*
X127300500Y-129578842D01*
X127300500Y-129421158D01*
X127300500Y-129421155D01*
X127300499Y-129421153D01*
X127269737Y-129266503D01*
X127269735Y-129266498D01*
X127209397Y-129120827D01*
X127209390Y-129120814D01*
X127121789Y-128989711D01*
X127121786Y-128989707D01*
X127010292Y-128878213D01*
X127010288Y-128878210D01*
X126879185Y-128790609D01*
X126879172Y-128790602D01*
X126733499Y-128730263D01*
X126733491Y-128730261D01*
X126666418Y-128716919D01*
X126604507Y-128684534D01*
X126602929Y-128682983D01*
X124914674Y-126994727D01*
X124914673Y-126994726D01*
X124887005Y-126976239D01*
X124808127Y-126923535D01*
X124802388Y-126921158D01*
X124689744Y-126874499D01*
X124689738Y-126874497D01*
X124564071Y-126849500D01*
X124564069Y-126849500D01*
X124397757Y-126849500D01*
X124330718Y-126829815D01*
X124284963Y-126777011D01*
X124275019Y-126707853D01*
X124276140Y-126701308D01*
X124300500Y-126578844D01*
X124300500Y-126421155D01*
X124300499Y-126421153D01*
X124269738Y-126266510D01*
X124269737Y-126266503D01*
X124217995Y-126141585D01*
X124209397Y-126120827D01*
X124209390Y-126120814D01*
X124121789Y-125989711D01*
X124121786Y-125989707D01*
X124010292Y-125878213D01*
X124010288Y-125878210D01*
X123879185Y-125790609D01*
X123879172Y-125790602D01*
X123733501Y-125730264D01*
X123733489Y-125730261D01*
X123578845Y-125699500D01*
X123578842Y-125699500D01*
X123421158Y-125699500D01*
X123421155Y-125699500D01*
X123266510Y-125730261D01*
X123266498Y-125730264D01*
X123120827Y-125790602D01*
X123120820Y-125790606D01*
X123091928Y-125809911D01*
X123063955Y-125828602D01*
X122997279Y-125849480D01*
X122995065Y-125849500D01*
X121504935Y-125849500D01*
X121437896Y-125829815D01*
X121436090Y-125828633D01*
X121379179Y-125790606D01*
X121379172Y-125790602D01*
X121233501Y-125730264D01*
X121233489Y-125730261D01*
X121078845Y-125699500D01*
X121078842Y-125699500D01*
X120921158Y-125699500D01*
X120921155Y-125699500D01*
X120766510Y-125730261D01*
X120766498Y-125730264D01*
X120620827Y-125790602D01*
X120620814Y-125790609D01*
X120489711Y-125878210D01*
X120489707Y-125878213D01*
X120378213Y-125989707D01*
X120378210Y-125989711D01*
X120290609Y-126120814D01*
X120290602Y-126120827D01*
X120230264Y-126266498D01*
X120230261Y-126266510D01*
X120199500Y-126421153D01*
X115841100Y-126421153D01*
X114914673Y-125494726D01*
X114914669Y-125494723D01*
X114808127Y-125423535D01*
X114689744Y-125374499D01*
X114689738Y-125374497D01*
X114564071Y-125349500D01*
X114564069Y-125349500D01*
X114504935Y-125349500D01*
X114437896Y-125329815D01*
X114436090Y-125328633D01*
X114379179Y-125290606D01*
X114379172Y-125290602D01*
X114233501Y-125230264D01*
X114233489Y-125230261D01*
X114078845Y-125199500D01*
X114078842Y-125199500D01*
X113921158Y-125199500D01*
X113921155Y-125199500D01*
X113766510Y-125230261D01*
X113766498Y-125230264D01*
X113620827Y-125290602D01*
X113620814Y-125290609D01*
X113489711Y-125378210D01*
X113489707Y-125378213D01*
X113378213Y-125489707D01*
X113378210Y-125489711D01*
X113290609Y-125620814D01*
X113290602Y-125620827D01*
X113230264Y-125766498D01*
X113230261Y-125766510D01*
X113199500Y-125921153D01*
X54132507Y-125921153D01*
X54030109Y-125780213D01*
X53879786Y-125629890D01*
X53707820Y-125504951D01*
X53707115Y-125504591D01*
X53699054Y-125500485D01*
X53648259Y-125452512D01*
X53631463Y-125384692D01*
X53653999Y-125318556D01*
X53699054Y-125279515D01*
X53707816Y-125275051D01*
X53729789Y-125259086D01*
X53879786Y-125150109D01*
X53879788Y-125150106D01*
X53879792Y-125150104D01*
X54030104Y-124999792D01*
X54030106Y-124999788D01*
X54030109Y-124999786D01*
X54155048Y-124827820D01*
X54155047Y-124827820D01*
X54155051Y-124827816D01*
X54251557Y-124638412D01*
X54317246Y-124436243D01*
X54350500Y-124226287D01*
X54350500Y-124013713D01*
X54317246Y-123803757D01*
X54251557Y-123601588D01*
X54155051Y-123412184D01*
X54155049Y-123412181D01*
X54155048Y-123412179D01*
X54030109Y-123240213D01*
X53879786Y-123089890D01*
X53707820Y-122964951D01*
X53707115Y-122964591D01*
X53699054Y-122960485D01*
X53648259Y-122912512D01*
X53631463Y-122844692D01*
X53653999Y-122778556D01*
X53699054Y-122739515D01*
X53707816Y-122735051D01*
X53781372Y-122681610D01*
X53879786Y-122610109D01*
X53879788Y-122610106D01*
X53879792Y-122610104D01*
X54030104Y-122459792D01*
X54030106Y-122459788D01*
X54030109Y-122459786D01*
X54155048Y-122287820D01*
X54155047Y-122287820D01*
X54155051Y-122287816D01*
X54251557Y-122098412D01*
X54316789Y-121897648D01*
X95889500Y-121897648D01*
X95889500Y-122102351D01*
X95921522Y-122304534D01*
X95984781Y-122499223D01*
X96077715Y-122681613D01*
X96198028Y-122847213D01*
X96342786Y-122991971D01*
X96477563Y-123089890D01*
X96508390Y-123112287D01*
X96624607Y-123171503D01*
X96690776Y-123205218D01*
X96690778Y-123205218D01*
X96690781Y-123205220D01*
X96795137Y-123239127D01*
X96885465Y-123268477D01*
X96986557Y-123284488D01*
X97087648Y-123300500D01*
X97087649Y-123300500D01*
X97292351Y-123300500D01*
X97292352Y-123300500D01*
X97494534Y-123268477D01*
X97689219Y-123205220D01*
X97871610Y-123112287D01*
X97996737Y-123021378D01*
X98037213Y-122991971D01*
X98037215Y-122991968D01*
X98037219Y-122991966D01*
X98181966Y-122847219D01*
X98181968Y-122847215D01*
X98181971Y-122847213D01*
X98260216Y-122739516D01*
X98302287Y-122681610D01*
X98395220Y-122499219D01*
X98458477Y-122304534D01*
X98490500Y-122102352D01*
X98490500Y-121897648D01*
X103509500Y-121897648D01*
X103509500Y-122102351D01*
X103541522Y-122304534D01*
X103604781Y-122499223D01*
X103697715Y-122681613D01*
X103818028Y-122847213D01*
X103962786Y-122991971D01*
X104097563Y-123089890D01*
X104128390Y-123112287D01*
X104244607Y-123171503D01*
X104310776Y-123205218D01*
X104310778Y-123205218D01*
X104310781Y-123205220D01*
X104415137Y-123239127D01*
X104505465Y-123268477D01*
X104606557Y-123284488D01*
X104707648Y-123300500D01*
X104707649Y-123300500D01*
X104912351Y-123300500D01*
X104912352Y-123300500D01*
X105114534Y-123268477D01*
X105309219Y-123205220D01*
X105491610Y-123112287D01*
X105616737Y-123021378D01*
X105657213Y-122991971D01*
X105657215Y-122991968D01*
X105657219Y-122991966D01*
X105801966Y-122847219D01*
X105801968Y-122847215D01*
X105801971Y-122847213D01*
X105880216Y-122739516D01*
X105922287Y-122681610D01*
X106002308Y-122524560D01*
X120889500Y-122524560D01*
X120889500Y-122735439D01*
X120930636Y-122942245D01*
X120930638Y-122942253D01*
X121011333Y-123137069D01*
X121011338Y-123137078D01*
X121128487Y-123312403D01*
X121128490Y-123312407D01*
X121277592Y-123461509D01*
X121277596Y-123461512D01*
X121452921Y-123578661D01*
X121452927Y-123578664D01*
X121452928Y-123578665D01*
X121647747Y-123659362D01*
X121852051Y-123700000D01*
X121854560Y-123700499D01*
X121854564Y-123700500D01*
X121854565Y-123700500D01*
X122065436Y-123700500D01*
X122065437Y-123700499D01*
X122272253Y-123659362D01*
X122467072Y-123578665D01*
X122642404Y-123461512D01*
X122791512Y-123312404D01*
X122908665Y-123137072D01*
X122989362Y-122942253D01*
X123030500Y-122735435D01*
X123030500Y-122524565D01*
X123030499Y-122524560D01*
X123429500Y-122524560D01*
X123429500Y-122735439D01*
X123470636Y-122942245D01*
X123470638Y-122942253D01*
X123551333Y-123137069D01*
X123551338Y-123137078D01*
X123668487Y-123312403D01*
X123668490Y-123312407D01*
X123817592Y-123461509D01*
X123817596Y-123461512D01*
X123992921Y-123578661D01*
X123992927Y-123578664D01*
X123992928Y-123578665D01*
X124187747Y-123659362D01*
X124392051Y-123700000D01*
X124394560Y-123700499D01*
X124394564Y-123700500D01*
X124394565Y-123700500D01*
X124605436Y-123700500D01*
X124605437Y-123700499D01*
X124812253Y-123659362D01*
X125007072Y-123578665D01*
X125182404Y-123461512D01*
X125331512Y-123312404D01*
X125448665Y-123137072D01*
X125529362Y-122942253D01*
X125570500Y-122735435D01*
X125570500Y-122524565D01*
X125570499Y-122524560D01*
X125969500Y-122524560D01*
X125969500Y-122735439D01*
X126010636Y-122942245D01*
X126010638Y-122942253D01*
X126091333Y-123137069D01*
X126091338Y-123137078D01*
X126208487Y-123312403D01*
X126208490Y-123312407D01*
X126357592Y-123461509D01*
X126357596Y-123461512D01*
X126532921Y-123578661D01*
X126532927Y-123578664D01*
X126532928Y-123578665D01*
X126727747Y-123659362D01*
X126932051Y-123700000D01*
X126934560Y-123700499D01*
X126934564Y-123700500D01*
X126934565Y-123700500D01*
X127145436Y-123700500D01*
X127145437Y-123700499D01*
X127352253Y-123659362D01*
X127547072Y-123578665D01*
X127722404Y-123461512D01*
X127871512Y-123312404D01*
X127988665Y-123137072D01*
X128069362Y-122942253D01*
X128110500Y-122735435D01*
X128110500Y-122524565D01*
X128110499Y-122524560D01*
X128509500Y-122524560D01*
X128509500Y-122735439D01*
X128550636Y-122942245D01*
X128550638Y-122942253D01*
X128631333Y-123137069D01*
X128631338Y-123137078D01*
X128748487Y-123312403D01*
X128748490Y-123312407D01*
X128897592Y-123461509D01*
X128897596Y-123461512D01*
X129072921Y-123578661D01*
X129072927Y-123578664D01*
X129072928Y-123578665D01*
X129267747Y-123659362D01*
X129472051Y-123700000D01*
X129474560Y-123700499D01*
X129474564Y-123700500D01*
X129474565Y-123700500D01*
X129685436Y-123700500D01*
X129685437Y-123700499D01*
X129892253Y-123659362D01*
X130087072Y-123578665D01*
X130262404Y-123461512D01*
X130411512Y-123312404D01*
X130528665Y-123137072D01*
X130609362Y-122942253D01*
X130650500Y-122735435D01*
X130650500Y-122524565D01*
X130650499Y-122524560D01*
X131049500Y-122524560D01*
X131049500Y-122735439D01*
X131090636Y-122942245D01*
X131090638Y-122942253D01*
X131171333Y-123137069D01*
X131171338Y-123137078D01*
X131288487Y-123312403D01*
X131288490Y-123312407D01*
X131437592Y-123461509D01*
X131437596Y-123461512D01*
X131612921Y-123578661D01*
X131612927Y-123578664D01*
X131612928Y-123578665D01*
X131807747Y-123659362D01*
X132012051Y-123700000D01*
X132014560Y-123700499D01*
X132014564Y-123700500D01*
X132014565Y-123700500D01*
X132225436Y-123700500D01*
X132225437Y-123700499D01*
X132432253Y-123659362D01*
X132627072Y-123578665D01*
X132802404Y-123461512D01*
X132951512Y-123312404D01*
X133068665Y-123137072D01*
X133149362Y-122942253D01*
X133190500Y-122735435D01*
X133190500Y-122524565D01*
X133190499Y-122524560D01*
X133589500Y-122524560D01*
X133589500Y-122735439D01*
X133630636Y-122942245D01*
X133630638Y-122942253D01*
X133711333Y-123137069D01*
X133711338Y-123137078D01*
X133828487Y-123312403D01*
X133828490Y-123312407D01*
X133977592Y-123461509D01*
X133977596Y-123461512D01*
X134152921Y-123578661D01*
X134152927Y-123578664D01*
X134152928Y-123578665D01*
X134347747Y-123659362D01*
X134552051Y-123700000D01*
X134554560Y-123700499D01*
X134554564Y-123700500D01*
X134554565Y-123700500D01*
X134765436Y-123700500D01*
X134765437Y-123700499D01*
X134972253Y-123659362D01*
X135167072Y-123578665D01*
X135342404Y-123461512D01*
X135342407Y-123461509D01*
X135394769Y-123409148D01*
X135491509Y-123312407D01*
X135491512Y-123312404D01*
X135608665Y-123137072D01*
X135689362Y-122942253D01*
X135730500Y-122735435D01*
X135730500Y-122735388D01*
X136129999Y-122735388D01*
X136171118Y-122942101D01*
X136171120Y-122942107D01*
X136251778Y-123136833D01*
X136286959Y-123189485D01*
X136782356Y-122694089D01*
X136808622Y-122792114D01*
X136863916Y-122887886D01*
X136942114Y-122966084D01*
X137037886Y-123021378D01*
X137135910Y-123047643D01*
X136640513Y-123543039D01*
X136693164Y-123578220D01*
X136693167Y-123578222D01*
X136887892Y-123658879D01*
X136887898Y-123658881D01*
X137094611Y-123700000D01*
X137305388Y-123700000D01*
X137512101Y-123658881D01*
X137512107Y-123658879D01*
X137706830Y-123578223D01*
X137759485Y-123543039D01*
X137264090Y-123047643D01*
X137362114Y-123021378D01*
X137457886Y-122966084D01*
X137536084Y-122887886D01*
X137591378Y-122792114D01*
X137617643Y-122694089D01*
X138113039Y-123189485D01*
X138148223Y-123136830D01*
X138228879Y-122942107D01*
X138228881Y-122942101D01*
X138270000Y-122735388D01*
X138270000Y-122524611D01*
X138228881Y-122317898D01*
X138228879Y-122317892D01*
X138148222Y-122123167D01*
X138148220Y-122123164D01*
X138113039Y-122070513D01*
X137617643Y-122565909D01*
X137591378Y-122467886D01*
X137536084Y-122372114D01*
X137457886Y-122293916D01*
X137362114Y-122238622D01*
X137264089Y-122212356D01*
X137759485Y-121716959D01*
X137759485Y-121716958D01*
X137706833Y-121681778D01*
X137512107Y-121601120D01*
X137512101Y-121601118D01*
X137305388Y-121560000D01*
X137094612Y-121560000D01*
X136887898Y-121601118D01*
X136887892Y-121601120D01*
X136693168Y-121681777D01*
X136693156Y-121681784D01*
X136640513Y-121716958D01*
X136640512Y-121716959D01*
X137135910Y-122212356D01*
X137037886Y-122238622D01*
X136942114Y-122293916D01*
X136863916Y-122372114D01*
X136808622Y-122467886D01*
X136782356Y-122565909D01*
X136286959Y-122070512D01*
X136286958Y-122070513D01*
X136251784Y-122123156D01*
X136251777Y-122123168D01*
X136171120Y-122317892D01*
X136171118Y-122317898D01*
X136130000Y-122524611D01*
X136130000Y-122735388D01*
X136129999Y-122735388D01*
X135730500Y-122735388D01*
X135730500Y-122524565D01*
X135689362Y-122317747D01*
X135626946Y-122167063D01*
X135608666Y-122122930D01*
X135608661Y-122122921D01*
X135491512Y-121947596D01*
X135491509Y-121947592D01*
X135342407Y-121798490D01*
X135342403Y-121798487D01*
X135167078Y-121681338D01*
X135167069Y-121681333D01*
X134972253Y-121600638D01*
X134972245Y-121600636D01*
X134765439Y-121559500D01*
X134765435Y-121559500D01*
X134554565Y-121559500D01*
X134554560Y-121559500D01*
X134347754Y-121600636D01*
X134347746Y-121600638D01*
X134152930Y-121681333D01*
X134152921Y-121681338D01*
X133977596Y-121798487D01*
X133977592Y-121798490D01*
X133828490Y-121947592D01*
X133828487Y-121947596D01*
X133711338Y-122122921D01*
X133711333Y-122122930D01*
X133630638Y-122317746D01*
X133630636Y-122317754D01*
X133589500Y-122524560D01*
X133190499Y-122524560D01*
X133149362Y-122317747D01*
X133086946Y-122167063D01*
X133068666Y-122122930D01*
X133068661Y-122122921D01*
X132951512Y-121947596D01*
X132951509Y-121947592D01*
X132802407Y-121798490D01*
X132802403Y-121798487D01*
X132627078Y-121681338D01*
X132627069Y-121681333D01*
X132432253Y-121600638D01*
X132432245Y-121600636D01*
X132225439Y-121559500D01*
X132225435Y-121559500D01*
X132014565Y-121559500D01*
X132014560Y-121559500D01*
X131807754Y-121600636D01*
X131807746Y-121600638D01*
X131612930Y-121681333D01*
X131612921Y-121681338D01*
X131437596Y-121798487D01*
X131437592Y-121798490D01*
X131288490Y-121947592D01*
X131288487Y-121947596D01*
X131171338Y-122122921D01*
X131171333Y-122122930D01*
X131090638Y-122317746D01*
X131090636Y-122317754D01*
X131049500Y-122524560D01*
X130650499Y-122524560D01*
X130609362Y-122317747D01*
X130546946Y-122167063D01*
X130528666Y-122122930D01*
X130528661Y-122122921D01*
X130411512Y-121947596D01*
X130411509Y-121947592D01*
X130262407Y-121798490D01*
X130262403Y-121798487D01*
X130087078Y-121681338D01*
X130087069Y-121681333D01*
X129892253Y-121600638D01*
X129892245Y-121600636D01*
X129685439Y-121559500D01*
X129685435Y-121559500D01*
X129474565Y-121559500D01*
X129474560Y-121559500D01*
X129267754Y-121600636D01*
X129267746Y-121600638D01*
X129072930Y-121681333D01*
X129072921Y-121681338D01*
X128897596Y-121798487D01*
X128897592Y-121798490D01*
X128748490Y-121947592D01*
X128748487Y-121947596D01*
X128631338Y-122122921D01*
X128631333Y-122122930D01*
X128550638Y-122317746D01*
X128550636Y-122317754D01*
X128509500Y-122524560D01*
X128110499Y-122524560D01*
X128069362Y-122317747D01*
X128006946Y-122167063D01*
X127988666Y-122122930D01*
X127988661Y-122122921D01*
X127871512Y-121947596D01*
X127871509Y-121947592D01*
X127722407Y-121798490D01*
X127722403Y-121798487D01*
X127547078Y-121681338D01*
X127547069Y-121681333D01*
X127352253Y-121600638D01*
X127352245Y-121600636D01*
X127145439Y-121559500D01*
X127145435Y-121559500D01*
X126934565Y-121559500D01*
X126934560Y-121559500D01*
X126727754Y-121600636D01*
X126727746Y-121600638D01*
X126532930Y-121681333D01*
X126532921Y-121681338D01*
X126357596Y-121798487D01*
X126357592Y-121798490D01*
X126208490Y-121947592D01*
X126208487Y-121947596D01*
X126091338Y-122122921D01*
X126091333Y-122122930D01*
X126010638Y-122317746D01*
X126010636Y-122317754D01*
X125969500Y-122524560D01*
X125570499Y-122524560D01*
X125529362Y-122317747D01*
X125466946Y-122167063D01*
X125448666Y-122122930D01*
X125448661Y-122122921D01*
X125331512Y-121947596D01*
X125331509Y-121947592D01*
X125182407Y-121798490D01*
X125182403Y-121798487D01*
X125007078Y-121681338D01*
X125007069Y-121681333D01*
X124812253Y-121600638D01*
X124812245Y-121600636D01*
X124605439Y-121559500D01*
X124605435Y-121559500D01*
X124394565Y-121559500D01*
X124394560Y-121559500D01*
X124187754Y-121600636D01*
X124187746Y-121600638D01*
X123992930Y-121681333D01*
X123992921Y-121681338D01*
X123817596Y-121798487D01*
X123817592Y-121798490D01*
X123668490Y-121947592D01*
X123668487Y-121947596D01*
X123551338Y-122122921D01*
X123551333Y-122122930D01*
X123470638Y-122317746D01*
X123470636Y-122317754D01*
X123429500Y-122524560D01*
X123030499Y-122524560D01*
X122989362Y-122317747D01*
X122926946Y-122167063D01*
X122908666Y-122122930D01*
X122908661Y-122122921D01*
X122791512Y-121947596D01*
X122791509Y-121947592D01*
X122642407Y-121798490D01*
X122642403Y-121798487D01*
X122467078Y-121681338D01*
X122467069Y-121681333D01*
X122272253Y-121600638D01*
X122272245Y-121600636D01*
X122065439Y-121559500D01*
X122065435Y-121559500D01*
X121854565Y-121559500D01*
X121854560Y-121559500D01*
X121647754Y-121600636D01*
X121647746Y-121600638D01*
X121452930Y-121681333D01*
X121452921Y-121681338D01*
X121277596Y-121798487D01*
X121277592Y-121798490D01*
X121128490Y-121947592D01*
X121128487Y-121947596D01*
X121011338Y-122122921D01*
X121011333Y-122122930D01*
X120930638Y-122317746D01*
X120930636Y-122317754D01*
X120889500Y-122524560D01*
X106002308Y-122524560D01*
X106015220Y-122499219D01*
X106078477Y-122304534D01*
X106110500Y-122102352D01*
X106110500Y-121897648D01*
X106078477Y-121695466D01*
X106075494Y-121686286D01*
X106047821Y-121601118D01*
X106015220Y-121500781D01*
X106015218Y-121500778D01*
X106015218Y-121500776D01*
X105981503Y-121434607D01*
X105922287Y-121318390D01*
X105914556Y-121307749D01*
X105801971Y-121152786D01*
X105657213Y-121008028D01*
X105491613Y-120887715D01*
X105491612Y-120887714D01*
X105491610Y-120887713D01*
X105434653Y-120858691D01*
X105309223Y-120794781D01*
X105114534Y-120731522D01*
X104939995Y-120703878D01*
X104912352Y-120699500D01*
X104707648Y-120699500D01*
X104683329Y-120703351D01*
X104505465Y-120731522D01*
X104310776Y-120794781D01*
X104128386Y-120887715D01*
X103962786Y-121008028D01*
X103818028Y-121152786D01*
X103697715Y-121318386D01*
X103604781Y-121500776D01*
X103541522Y-121695465D01*
X103509500Y-121897648D01*
X98490500Y-121897648D01*
X98458477Y-121695466D01*
X98455494Y-121686286D01*
X98427821Y-121601118D01*
X98395220Y-121500781D01*
X98395218Y-121500778D01*
X98395218Y-121500776D01*
X98361503Y-121434607D01*
X98302287Y-121318390D01*
X98294556Y-121307749D01*
X98181971Y-121152786D01*
X98037213Y-121008028D01*
X97871613Y-120887715D01*
X97871612Y-120887714D01*
X97871610Y-120887713D01*
X97814653Y-120858691D01*
X97689223Y-120794781D01*
X97494534Y-120731522D01*
X97319995Y-120703878D01*
X97292352Y-120699500D01*
X97087648Y-120699500D01*
X97063329Y-120703351D01*
X96885465Y-120731522D01*
X96690776Y-120794781D01*
X96508386Y-120887715D01*
X96342786Y-121008028D01*
X96198028Y-121152786D01*
X96077715Y-121318386D01*
X95984781Y-121500776D01*
X95921522Y-121695465D01*
X95889500Y-121897648D01*
X54316789Y-121897648D01*
X54317246Y-121896243D01*
X54350500Y-121686287D01*
X54350500Y-121473713D01*
X54317246Y-121263757D01*
X54251557Y-121061588D01*
X54155051Y-120872184D01*
X54155049Y-120872181D01*
X54155048Y-120872179D01*
X54030109Y-120700213D01*
X53879786Y-120549890D01*
X53707820Y-120424951D01*
X53707115Y-120424591D01*
X53699054Y-120420485D01*
X53648259Y-120372512D01*
X53631463Y-120304692D01*
X53653999Y-120238556D01*
X53699054Y-120199515D01*
X53707816Y-120195051D01*
X53729789Y-120179086D01*
X53879786Y-120070109D01*
X53879788Y-120070106D01*
X53879792Y-120070104D01*
X54030104Y-119919792D01*
X54030106Y-119919788D01*
X54030109Y-119919786D01*
X54155048Y-119747820D01*
X54155047Y-119747820D01*
X54155051Y-119747816D01*
X54251557Y-119558412D01*
X54317246Y-119356243D01*
X54350500Y-119146287D01*
X54350500Y-118933713D01*
X54317246Y-118723757D01*
X54251557Y-118521588D01*
X54155051Y-118332184D01*
X54155049Y-118332181D01*
X54155048Y-118332179D01*
X54030109Y-118160213D01*
X53879786Y-118009890D01*
X53707820Y-117884951D01*
X53707115Y-117884591D01*
X53699054Y-117880485D01*
X53648259Y-117832512D01*
X53631463Y-117764692D01*
X53653999Y-117698556D01*
X53699054Y-117659515D01*
X53707816Y-117655051D01*
X53825535Y-117569524D01*
X53879786Y-117530109D01*
X53879788Y-117530106D01*
X53879792Y-117530104D01*
X54030104Y-117379792D01*
X54030106Y-117379788D01*
X54030109Y-117379786D01*
X54155048Y-117207820D01*
X54155047Y-117207820D01*
X54155051Y-117207816D01*
X54251557Y-117018412D01*
X54317246Y-116816243D01*
X54350500Y-116606287D01*
X54350500Y-116401577D01*
X56249500Y-116401577D01*
X56249500Y-116598422D01*
X56280290Y-116792826D01*
X56341117Y-116980029D01*
X56430476Y-117155405D01*
X56546172Y-117314646D01*
X56685354Y-117453828D01*
X56844595Y-117569524D01*
X56927455Y-117611743D01*
X57019970Y-117658882D01*
X57019972Y-117658882D01*
X57019975Y-117658884D01*
X57120317Y-117691487D01*
X57207173Y-117719709D01*
X57401578Y-117750500D01*
X57401583Y-117750500D01*
X57598422Y-117750500D01*
X57792826Y-117719709D01*
X57980025Y-117658884D01*
X58155405Y-117569524D01*
X58314646Y-117453828D01*
X58453828Y-117314646D01*
X58569524Y-117155405D01*
X58658884Y-116980025D01*
X58719709Y-116792826D01*
X58749254Y-116606286D01*
X58750500Y-116598422D01*
X58750500Y-116401577D01*
X58749878Y-116397648D01*
X95889500Y-116397648D01*
X95889500Y-116602351D01*
X95921522Y-116804534D01*
X95984781Y-116999223D01*
X96077715Y-117181613D01*
X96198028Y-117347213D01*
X96342786Y-117491971D01*
X96449531Y-117569524D01*
X96508390Y-117612287D01*
X96592319Y-117655051D01*
X96690776Y-117705218D01*
X96690778Y-117705218D01*
X96690781Y-117705220D01*
X96735374Y-117719709D01*
X96885465Y-117768477D01*
X96986557Y-117784488D01*
X97087648Y-117800500D01*
X97087649Y-117800500D01*
X97292351Y-117800500D01*
X97292352Y-117800500D01*
X97494534Y-117768477D01*
X97689219Y-117705220D01*
X97871610Y-117612287D01*
X97984726Y-117530104D01*
X98037213Y-117491971D01*
X98037215Y-117491968D01*
X98037219Y-117491966D01*
X98181966Y-117347219D01*
X98181968Y-117347215D01*
X98181971Y-117347213D01*
X98283247Y-117207816D01*
X98302287Y-117181610D01*
X98395220Y-116999219D01*
X98458477Y-116804534D01*
X98490500Y-116602352D01*
X98490500Y-116397648D01*
X103509500Y-116397648D01*
X103509500Y-116602351D01*
X103541522Y-116804534D01*
X103604781Y-116999223D01*
X103697715Y-117181613D01*
X103818028Y-117347213D01*
X103962786Y-117491971D01*
X104069531Y-117569524D01*
X104128390Y-117612287D01*
X104212319Y-117655051D01*
X104310776Y-117705218D01*
X104310778Y-117705218D01*
X104310781Y-117705220D01*
X104355374Y-117719709D01*
X104505465Y-117768477D01*
X104606557Y-117784488D01*
X104707648Y-117800500D01*
X104707649Y-117800500D01*
X104912351Y-117800500D01*
X104912352Y-117800500D01*
X105114534Y-117768477D01*
X105309219Y-117705220D01*
X105491610Y-117612287D01*
X105604726Y-117530104D01*
X105657213Y-117491971D01*
X105657215Y-117491968D01*
X105657219Y-117491966D01*
X105801966Y-117347219D01*
X105801968Y-117347215D01*
X105801971Y-117347213D01*
X105903247Y-117207816D01*
X105922287Y-117181610D01*
X106015220Y-116999219D01*
X106078477Y-116804534D01*
X106110500Y-116602352D01*
X106110500Y-116401577D01*
X136749500Y-116401577D01*
X136749500Y-116598422D01*
X136780290Y-116792826D01*
X136841117Y-116980029D01*
X136930476Y-117155405D01*
X137046172Y-117314646D01*
X137185354Y-117453828D01*
X137344595Y-117569524D01*
X137427455Y-117611743D01*
X137519970Y-117658882D01*
X137519972Y-117658882D01*
X137519975Y-117658884D01*
X137620317Y-117691487D01*
X137707173Y-117719709D01*
X137901578Y-117750500D01*
X137901583Y-117750500D01*
X138098422Y-117750500D01*
X138292826Y-117719709D01*
X138480025Y-117658884D01*
X138655405Y-117569524D01*
X138814646Y-117453828D01*
X138953828Y-117314646D01*
X139069524Y-117155405D01*
X139158884Y-116980025D01*
X139219709Y-116792826D01*
X139249254Y-116606286D01*
X139250500Y-116598422D01*
X139250500Y-116401577D01*
X139219709Y-116207173D01*
X139158882Y-116019970D01*
X139069523Y-115844594D01*
X138953828Y-115685354D01*
X138814646Y-115546172D01*
X138655405Y-115430476D01*
X138480029Y-115341117D01*
X138292826Y-115280290D01*
X138098422Y-115249500D01*
X138098417Y-115249500D01*
X137901583Y-115249500D01*
X137901578Y-115249500D01*
X137707173Y-115280290D01*
X137519970Y-115341117D01*
X137344594Y-115430476D01*
X137290338Y-115469896D01*
X137185354Y-115546172D01*
X137185352Y-115546174D01*
X137185351Y-115546174D01*
X137046174Y-115685351D01*
X137046174Y-115685352D01*
X137046172Y-115685354D01*
X136996485Y-115753741D01*
X136930476Y-115844594D01*
X136841117Y-116019970D01*
X136780290Y-116207173D01*
X136749500Y-116401577D01*
X106110500Y-116401577D01*
X106110500Y-116397648D01*
X106109877Y-116393713D01*
X106078477Y-116195465D01*
X106049127Y-116105137D01*
X106015220Y-116000781D01*
X106015218Y-116000778D01*
X106015218Y-116000776D01*
X105981503Y-115934607D01*
X105922287Y-115818390D01*
X105914556Y-115807749D01*
X105801971Y-115652786D01*
X105657213Y-115508028D01*
X105491613Y-115387715D01*
X105491612Y-115387714D01*
X105491610Y-115387713D01*
X105407681Y-115344949D01*
X105309223Y-115294781D01*
X105114534Y-115231522D01*
X104939995Y-115203878D01*
X104912352Y-115199500D01*
X104707648Y-115199500D01*
X104683329Y-115203351D01*
X104505465Y-115231522D01*
X104310776Y-115294781D01*
X104128386Y-115387715D01*
X103962786Y-115508028D01*
X103818028Y-115652786D01*
X103697715Y-115818386D01*
X103604781Y-116000776D01*
X103541522Y-116195465D01*
X103509500Y-116397648D01*
X98490500Y-116397648D01*
X98489877Y-116393713D01*
X98458477Y-116195465D01*
X98429127Y-116105137D01*
X98395220Y-116000781D01*
X98395218Y-116000778D01*
X98395218Y-116000776D01*
X98361503Y-115934607D01*
X98302287Y-115818390D01*
X98294556Y-115807749D01*
X98181971Y-115652786D01*
X98037213Y-115508028D01*
X97871613Y-115387715D01*
X97871612Y-115387714D01*
X97871610Y-115387713D01*
X97787681Y-115344949D01*
X97689223Y-115294781D01*
X97494534Y-115231522D01*
X97319995Y-115203878D01*
X97292352Y-115199500D01*
X97087648Y-115199500D01*
X97063329Y-115203351D01*
X96885465Y-115231522D01*
X96690776Y-115294781D01*
X96508386Y-115387715D01*
X96342786Y-115508028D01*
X96198028Y-115652786D01*
X96077715Y-115818386D01*
X95984781Y-116000776D01*
X95921522Y-116195465D01*
X95889500Y-116397648D01*
X58749878Y-116397648D01*
X58719709Y-116207173D01*
X58658882Y-116019970D01*
X58569523Y-115844594D01*
X58453828Y-115685354D01*
X58314646Y-115546172D01*
X58155405Y-115430476D01*
X57980029Y-115341117D01*
X57792826Y-115280290D01*
X57598422Y-115249500D01*
X57598417Y-115249500D01*
X57401583Y-115249500D01*
X57401578Y-115249500D01*
X57207173Y-115280290D01*
X57019970Y-115341117D01*
X56844594Y-115430476D01*
X56790338Y-115469896D01*
X56685354Y-115546172D01*
X56685352Y-115546174D01*
X56685351Y-115546174D01*
X56546174Y-115685351D01*
X56546174Y-115685352D01*
X56546172Y-115685354D01*
X56496485Y-115753741D01*
X56430476Y-115844594D01*
X56341117Y-116019970D01*
X56280290Y-116207173D01*
X56249500Y-116401577D01*
X54350500Y-116401577D01*
X54350500Y-116393713D01*
X54317246Y-116183757D01*
X54251557Y-115981588D01*
X54155051Y-115792184D01*
X54155049Y-115792181D01*
X54155048Y-115792179D01*
X54030109Y-115620213D01*
X53879786Y-115469890D01*
X53707820Y-115344951D01*
X53518414Y-115248444D01*
X53518413Y-115248443D01*
X53518412Y-115248443D01*
X53316243Y-115182754D01*
X53316241Y-115182753D01*
X53316240Y-115182753D01*
X53154957Y-115157208D01*
X53106287Y-115149500D01*
X52893713Y-115149500D01*
X52845042Y-115157208D01*
X52683760Y-115182753D01*
X52481585Y-115248444D01*
X52292179Y-115344951D01*
X52120213Y-115469890D01*
X51969890Y-115620213D01*
X51844951Y-115792179D01*
X51748444Y-115981585D01*
X51682753Y-116183760D01*
X51680899Y-116195466D01*
X51649500Y-116393713D01*
X50500500Y-116393713D01*
X50500500Y-113624500D01*
X50520185Y-113557461D01*
X50572989Y-113511706D01*
X50624500Y-113500500D01*
X140375500Y-113500500D01*
X140442539Y-113520185D01*
G37*
%TD.AperFunction*%
%TD*%
M02*
